<svg width="35" height="35" viewBox="0 0 35 35" fill="none" xmlns="http://www.w3.org/2000/svg">
<g id="dancer-motion" clip-path="url(#clip0_2_444)">
<g id="Group">
<g id="Group_2">
<path id="Vector" d="M30.92 12.1573C27.1965 14.1358 23.4906 16.179 19.87 18.3515C18.5826 17.0747 17.5155 16.0585 17.2405 14.8502C17.2556 14.778 17.1928 14.0323 17.1966 13.9268C17.211 13.5477 17.2299 13.1685 17.2701 12.7907C17.3862 11.7267 17.5783 10.6697 17.7515 9.61262C18.0327 7.88958 17.2996 6.17533 15.4861 5.68949C14.8415 5.51687 14.1077 5.58215 13.448 5.83637C13.2069 5.70455 12.9301 5.61291 12.6144 5.57776C9.94854 5.28211 7.33166 4.69521 4.82148 3.74612C2.31507 2.79892 1.24295 6.80805 3.71924 7.74458C6.16727 8.67044 8.7013 9.21026 11.2805 9.55927C11.2717 9.60823 11.2636 9.65719 11.2542 9.70615C8.24182 10.2843 5.28786 11.1009 2.37972 12.1027C-0.132967 12.9677 0.946679 16.9749 3.48196 16.1012C5.87351 15.277 8.29455 14.5784 10.7539 14.0341C10.7514 14.9393 10.843 15.8313 11.0859 16.6887C11.6634 18.7212 12.9257 20.3582 14.3437 21.8635C13.4787 22.451 12.6087 23.0279 11.6948 23.5256C10.0716 24.4101 8.26505 25.587 7.64049 27.4349C6.48112 30.866 10.0596 32.2256 11.8768 34.3202C13.6313 36.3439 16.552 33.3981 14.8088 31.3876C13.937 30.3826 12.7519 29.7643 11.8279 28.8247C11.3835 28.3708 11.4418 28.7807 11.9277 28.3395C12.6332 27.6973 13.4517 27.3207 14.2696 26.8436C16.8376 25.3472 19.2473 23.5627 21.8083 22.0405C25.4923 19.8536 29.2278 17.7495 33.0115 15.7371C35.3742 14.4817 33.2802 10.9025 30.92 12.1573Z" fill="white"/>
<path id="Vector_2" d="M19.6536 6.50675C21.4504 6.50675 22.907 5.05017 22.907 3.25338C22.907 1.45659 21.4504 0 19.6536 0C17.8568 0 16.4002 1.45659 16.4002 3.25338C16.4002 5.05017 17.8568 6.50675 19.6536 6.50675Z" fill="white"/>
</g>
</g>
</g>
<defs>
<clipPath id="clip0_2_444">
<rect width="35" height="35" fill="white"/>
</clipPath>
</defs>
</svg>
