<svg width="391" height="525" viewBox="0 0 391 525" fill="none" xmlns="http://www.w3.org/2000/svg">
<rect width="391" height="525" rx="8" fill="url(#paint0_linear_0_1)"/>
<rect x="47" y="261.055" width="296" height="53.945" rx="8" fill="#EDB7D5"/>
<path d="M161.152 295.395V283.475H166.176C166.965 283.475 167.637 283.613 168.192 283.891C168.757 284.157 169.189 284.541 169.488 285.043C169.797 285.533 169.952 286.131 169.952 286.835C169.952 287.379 169.803 287.891 169.504 288.371C169.216 288.84 168.752 289.229 168.112 289.539V288.531C168.699 288.755 169.163 289.032 169.504 289.363C169.845 289.693 170.085 290.061 170.224 290.467C170.363 290.872 170.432 291.299 170.432 291.747C170.432 292.888 170.053 293.784 169.296 294.435C168.549 295.075 167.509 295.395 166.176 295.395H161.152ZM163.328 293.475H166.4C166.965 293.475 167.413 293.32 167.744 293.011C168.085 292.691 168.256 292.269 168.256 291.747C168.256 291.224 168.085 290.803 167.744 290.483C167.413 290.163 166.965 290.003 166.4 290.003H163.328V293.475ZM163.328 288.099H166.288C166.736 288.099 167.093 287.971 167.36 287.715C167.627 287.448 167.76 287.107 167.76 286.691C167.76 286.275 167.627 285.944 167.36 285.699C167.093 285.453 166.736 285.331 166.288 285.331H163.328V288.099ZM175.143 295.587C174.471 295.587 173.884 295.437 173.383 295.139C172.892 294.84 172.513 294.424 172.247 293.891C171.991 293.357 171.863 292.733 171.863 292.019V286.691H173.959V291.843C173.959 292.205 174.028 292.525 174.167 292.803C174.316 293.069 174.524 293.283 174.791 293.443C175.068 293.592 175.377 293.667 175.719 293.667C176.06 293.667 176.364 293.592 176.631 293.443C176.897 293.283 177.105 293.064 177.255 292.787C177.404 292.509 177.479 292.179 177.479 291.795V286.691H179.575V295.395H177.591V293.683L177.767 293.987C177.564 294.52 177.228 294.92 176.759 295.187C176.3 295.453 175.761 295.587 175.143 295.587ZM182.579 298.931C182.344 298.931 182.115 298.909 181.891 298.867C181.667 298.835 181.464 298.776 181.283 298.691V296.931C181.422 296.963 181.587 296.995 181.779 297.027C181.982 297.059 182.168 297.075 182.339 297.075C182.819 297.075 183.166 296.963 183.379 296.739C183.603 296.515 183.8 296.221 183.971 295.859L184.547 294.515L184.515 296.275L180.723 286.691H182.979L185.635 293.763H184.835L187.475 286.691H189.747L185.955 296.275C185.731 296.84 185.459 297.32 185.139 297.715C184.819 298.109 184.446 298.408 184.019 298.611C183.603 298.824 183.123 298.931 182.579 298.931ZM193.918 295.395V283.475H195.614L202.174 292.307L201.294 292.483V283.475H203.47V295.395H201.758L195.294 286.499L196.094 286.323V295.395H193.918ZM209.857 295.587C209.004 295.587 208.225 295.389 207.521 294.995C206.828 294.6 206.273 294.061 205.857 293.379C205.452 292.696 205.249 291.917 205.249 291.043C205.249 290.168 205.452 289.389 205.857 288.707C206.273 288.024 206.828 287.485 207.521 287.091C208.214 286.696 208.993 286.499 209.857 286.499C210.71 286.499 211.484 286.696 212.177 287.091C212.87 287.485 213.42 288.024 213.825 288.707C214.241 289.379 214.449 290.157 214.449 291.043C214.449 291.917 214.241 292.696 213.825 293.379C213.409 294.061 212.854 294.6 212.161 294.995C211.468 295.389 210.7 295.587 209.857 295.587ZM209.857 293.667C210.326 293.667 210.737 293.555 211.089 293.331C211.452 293.107 211.734 292.797 211.937 292.403C212.15 291.997 212.257 291.544 212.257 291.043C212.257 290.531 212.15 290.083 211.937 289.699C211.734 289.304 211.452 288.995 211.089 288.771C210.737 288.536 210.326 288.419 209.857 288.419C209.377 288.419 208.956 288.536 208.593 288.771C208.23 288.995 207.942 289.304 207.729 289.699C207.526 290.083 207.425 290.531 207.425 291.043C207.425 291.544 207.526 291.997 207.729 292.403C207.942 292.797 208.23 293.107 208.593 293.331C208.956 293.555 209.377 293.667 209.857 293.667ZM218.074 295.395L215.082 286.691H217.29L219.482 293.299L218.714 293.283L221.05 286.691H222.906L225.226 293.283L224.458 293.299L226.65 286.691H228.858L225.866 295.395H223.994L221.626 288.499H222.33L219.93 295.395H218.074Z" fill="white"/>
<path d="M53.0008 358.349C53.0008 358.349 51.932 356.09 50.8129 355.038C49.6605 353.954 47.2461 352.995 47.2461 352.995C47.2461 352.995 49.6908 352.116 50.8067 350.992C51.896 349.894 52.8033 347.452 52.8033 347.452C52.8033 347.452 53.9763 349.885 55.2067 350.986C56.2949 351.959 58.5581 352.805 58.5581 352.805C58.5581 352.805 56.3014 353.95 55.2129 355.031C54.1087 356.129 53.0008 358.349 53.0008 358.349Z" fill="white"/>
<path d="M77.6888 354.011C77.6888 354.939 77.3688 355.712 76.7288 356.331C76.0995 356.939 75.1341 357.243 73.8328 357.243H71.6888V361.899H70.2328V350.747H73.8328C75.0915 350.747 76.0461 351.051 76.6968 351.659C77.3581 352.267 77.6888 353.051 77.6888 354.011ZM73.8328 356.043C74.6435 356.043 75.2408 355.867 75.6248 355.515C76.0088 355.163 76.2008 354.662 76.2008 354.011C76.2008 352.635 75.4115 351.947 73.8328 351.947H71.6888V356.043H73.8328ZM80.9544 354.555C81.2104 354.054 81.5731 353.664 82.0424 353.387C82.5224 353.11 83.1038 352.971 83.7864 352.971V354.475H83.4024C81.7704 354.475 80.9544 355.36 80.9544 357.131V361.899H79.4984V353.131H80.9544V354.555ZM86.2192 351.707C85.9418 351.707 85.7072 351.611 85.5152 351.419C85.3232 351.227 85.2272 350.992 85.2272 350.715C85.2272 350.438 85.3232 350.203 85.5152 350.011C85.7072 349.819 85.9418 349.723 86.2192 349.723C86.4858 349.723 86.7098 349.819 86.8912 350.011C87.0832 350.203 87.1792 350.438 87.1792 350.715C87.1792 350.992 87.0832 351.227 86.8912 351.419C86.7098 351.611 86.4858 351.707 86.2192 351.707ZM86.9232 353.131V361.899H85.4672V353.131H86.9232ZM88.8607 357.499C88.8607 356.592 89.042 355.803 89.4047 355.131C89.7673 354.448 90.2687 353.92 90.9087 353.547C91.5593 353.174 92.3007 352.987 93.1327 352.987C94.21 352.987 95.0953 353.248 95.7887 353.771C96.4927 354.294 96.9567 355.019 97.1807 355.947H95.6127C95.4633 355.414 95.17 354.992 94.7327 354.683C94.306 354.374 93.7727 354.219 93.1327 354.219C92.3007 354.219 91.6287 354.507 91.1167 355.083C90.6047 355.648 90.3487 356.454 90.3487 357.499C90.3487 358.555 90.6047 359.371 91.1167 359.947C91.6287 360.523 92.3007 360.811 93.1327 360.811C93.7727 360.811 94.306 360.662 94.7327 360.363C95.1593 360.064 95.4527 359.638 95.6127 359.083H97.1807C96.946 359.979 96.4767 360.699 95.7727 361.243C95.0687 361.776 94.1887 362.043 93.1327 362.043C92.3007 362.043 91.5593 361.856 90.9087 361.483C90.2687 361.11 89.7673 360.582 89.4047 359.899C89.042 359.216 88.8607 358.416 88.8607 357.499ZM99.8754 351.707C99.5981 351.707 99.3634 351.611 99.1714 351.419C98.9794 351.227 98.8834 350.992 98.8834 350.715C98.8834 350.438 98.9794 350.203 99.1714 350.011C99.3634 349.819 99.5981 349.723 99.8754 349.723C100.142 349.723 100.366 349.819 100.547 350.011C100.739 350.203 100.835 350.438 100.835 350.715C100.835 350.992 100.739 351.227 100.547 351.419C100.366 351.611 100.142 351.707 99.8754 351.707ZM100.579 353.131V361.899H99.1234V353.131H100.579ZM107.333 352.971C108.4 352.971 109.264 353.296 109.925 353.947C110.586 354.587 110.917 355.515 110.917 356.731V361.899H109.477V356.939C109.477 356.064 109.258 355.398 108.821 354.939C108.384 354.47 107.786 354.235 107.029 354.235C106.261 354.235 105.648 354.475 105.189 354.955C104.741 355.435 104.517 356.134 104.517 357.051V361.899H103.061V353.131H104.517V354.379C104.805 353.931 105.194 353.584 105.685 353.339C106.186 353.094 106.736 352.971 107.333 352.971ZM116.911 352.987C117.669 352.987 118.33 353.152 118.895 353.483C119.471 353.814 119.898 354.23 120.175 354.731V353.131H121.647V362.091C121.647 362.891 121.477 363.6 121.135 364.219C120.794 364.848 120.303 365.339 119.663 365.691C119.034 366.043 118.298 366.219 117.455 366.219C116.303 366.219 115.343 365.947 114.575 365.403C113.807 364.859 113.354 364.118 113.215 363.179H114.655C114.815 363.712 115.146 364.139 115.647 364.459C116.149 364.79 116.751 364.955 117.455 364.955C118.255 364.955 118.906 364.704 119.407 364.203C119.919 363.702 120.175 362.998 120.175 362.091V360.251C119.887 360.763 119.461 361.19 118.895 361.531C118.33 361.872 117.669 362.043 116.911 362.043C116.133 362.043 115.423 361.851 114.783 361.467C114.154 361.083 113.658 360.544 113.295 359.851C112.933 359.158 112.751 358.368 112.751 357.483C112.751 356.587 112.933 355.803 113.295 355.131C113.658 354.448 114.154 353.92 114.783 353.547C115.423 353.174 116.133 352.987 116.911 352.987ZM120.175 357.499C120.175 356.838 120.042 356.262 119.775 355.771C119.509 355.28 119.146 354.907 118.687 354.651C118.239 354.384 117.743 354.251 117.199 354.251C116.655 354.251 116.159 354.379 115.711 354.635C115.263 354.891 114.906 355.264 114.639 355.755C114.373 356.246 114.239 356.822 114.239 357.483C114.239 358.155 114.373 358.742 114.639 359.243C114.906 359.734 115.263 360.112 115.711 360.379C116.159 360.635 116.655 360.763 117.199 360.763C117.743 360.763 118.239 360.635 118.687 360.379C119.146 360.112 119.509 359.734 119.775 359.243C120.042 358.742 120.175 358.16 120.175 357.499ZM129.829 350.747V361.899H128.373V350.747H129.829ZM136.583 352.971C137.65 352.971 138.514 353.296 139.175 353.947C139.836 354.587 140.167 355.515 140.167 356.731V361.899H138.727V356.939C138.727 356.064 138.508 355.398 138.071 354.939C137.634 354.47 137.036 354.235 136.279 354.235C135.511 354.235 134.898 354.475 134.439 354.955C133.991 355.435 133.767 356.134 133.767 357.051V361.899H132.311V353.131H133.767V354.379C134.055 353.931 134.444 353.584 134.935 353.339C135.436 353.094 135.986 352.971 136.583 352.971ZM146.113 354.331H144.273V361.899H142.817V354.331H141.681V353.131H142.817V352.507C142.817 351.526 143.068 350.811 143.569 350.363C144.081 349.904 144.897 349.675 146.017 349.675V350.891C145.377 350.891 144.924 351.019 144.657 351.275C144.401 351.52 144.273 351.931 144.273 352.507V353.131H146.113V354.331ZM151.635 362.043C150.814 362.043 150.067 361.856 149.395 361.483C148.734 361.11 148.211 360.582 147.827 359.899C147.454 359.206 147.267 358.406 147.267 357.499C147.267 356.603 147.459 355.814 147.843 355.131C148.238 354.438 148.771 353.91 149.443 353.547C150.115 353.174 150.867 352.987 151.699 352.987C152.531 352.987 153.283 353.174 153.955 353.547C154.627 353.91 155.155 354.432 155.539 355.115C155.934 355.798 156.131 356.592 156.131 357.499C156.131 358.406 155.928 359.206 155.523 359.899C155.128 360.582 154.59 361.11 153.907 361.483C153.224 361.856 152.467 362.043 151.635 362.043ZM151.635 360.763C152.158 360.763 152.648 360.64 153.107 360.395C153.566 360.15 153.934 359.782 154.211 359.291C154.499 358.8 154.643 358.203 154.643 357.499C154.643 356.795 154.504 356.198 154.227 355.707C153.95 355.216 153.587 354.854 153.139 354.619C152.691 354.374 152.206 354.251 151.683 354.251C151.15 354.251 150.659 354.374 150.211 354.619C149.774 354.854 149.422 355.216 149.155 355.707C148.888 356.198 148.755 356.795 148.755 357.499C148.755 358.214 148.883 358.816 149.139 359.307C149.406 359.798 149.758 360.166 150.195 360.411C150.632 360.646 151.112 360.763 151.635 360.763ZM169.767 354.011C169.767 354.939 169.447 355.712 168.807 356.331C168.178 356.939 167.212 357.243 165.911 357.243H163.767V361.899H162.311V350.747H165.911C167.17 350.747 168.124 351.051 168.775 351.659C169.436 352.267 169.767 353.051 169.767 354.011ZM165.911 356.043C166.722 356.043 167.319 355.867 167.703 355.515C168.087 355.163 168.279 354.662 168.279 354.011C168.279 352.635 167.49 351.947 165.911 351.947H163.767V356.043H165.911ZM175.401 362.043C174.579 362.043 173.833 361.856 173.161 361.483C172.499 361.11 171.977 360.582 171.593 359.899C171.219 359.206 171.033 358.406 171.033 357.499C171.033 356.603 171.225 355.814 171.609 355.131C172.003 354.438 172.537 353.91 173.209 353.547C173.881 353.174 174.633 352.987 175.465 352.987C176.297 352.987 177.049 353.174 177.721 353.547C178.393 353.91 178.921 354.432 179.305 355.115C179.699 355.798 179.897 356.592 179.897 357.499C179.897 358.406 179.694 359.206 179.289 359.899C178.894 360.582 178.355 361.11 177.673 361.483C176.99 361.856 176.233 362.043 175.401 362.043ZM175.401 360.763C175.923 360.763 176.414 360.64 176.873 360.395C177.331 360.15 177.699 359.782 177.977 359.291C178.265 358.8 178.409 358.203 178.409 357.499C178.409 356.795 178.27 356.198 177.993 355.707C177.715 355.216 177.353 354.854 176.905 354.619C176.457 354.374 175.971 354.251 175.449 354.251C174.915 354.251 174.425 354.374 173.977 354.619C173.539 354.854 173.187 355.216 172.921 355.707C172.654 356.198 172.521 356.795 172.521 357.499C172.521 358.214 172.649 358.816 172.905 359.307C173.171 359.798 173.523 360.166 173.961 360.411C174.398 360.646 174.878 360.763 175.401 360.763ZM182.563 351.707C182.286 351.707 182.051 351.611 181.859 351.419C181.667 351.227 181.571 350.992 181.571 350.715C181.571 350.438 181.667 350.203 181.859 350.011C182.051 349.819 182.286 349.723 182.563 349.723C182.83 349.723 183.054 349.819 183.235 350.011C183.427 350.203 183.523 350.438 183.523 350.715C183.523 350.992 183.427 351.227 183.235 351.419C183.054 351.611 182.83 351.707 182.563 351.707ZM183.267 353.131V361.899H181.811V353.131H183.267ZM190.02 352.971C191.087 352.971 191.951 353.296 192.612 353.947C193.274 354.587 193.604 355.515 193.604 356.731V361.899H192.164V356.939C192.164 356.064 191.946 355.398 191.508 354.939C191.071 354.47 190.474 354.235 189.716 354.235C188.948 354.235 188.335 354.475 187.876 354.955C187.428 355.435 187.204 356.134 187.204 357.051V361.899H185.748V353.131H187.204V354.379C187.492 353.931 187.882 353.584 188.372 353.339C188.874 353.094 189.423 352.971 190.02 352.971ZM197.759 354.331V359.499C197.759 359.926 197.849 360.23 198.031 360.411C198.212 360.582 198.527 360.667 198.975 360.667H200.047V361.899H198.735C197.924 361.899 197.316 361.712 196.911 361.339C196.505 360.966 196.303 360.352 196.303 359.499V354.331H195.167V353.131H196.303V350.923H197.759V353.131H200.047V354.331H197.759Z" fill="white" fill-opacity="0.8"/>
<path d="M53.0008 462.385C53.0008 462.385 51.932 460.127 50.8129 459.074C49.6605 457.991 47.2461 457.032 47.2461 457.032C47.2461 457.032 49.6908 456.153 50.8067 455.029C51.896 453.931 52.8033 451.489 52.8033 451.489C52.8033 451.489 53.9763 453.922 55.2067 455.022C56.2949 455.996 58.5581 456.842 58.5581 456.842C58.5581 456.842 56.3014 457.986 55.2129 459.068C54.1087 460.166 53.0008 462.385 53.0008 462.385Z" fill="white"/>
<path d="M77.6888 458.048C77.6888 458.976 77.3688 459.749 76.7288 460.368C76.0995 460.976 75.1341 461.28 73.8328 461.28H71.6888V465.936H70.2328V454.784H73.8328C75.0915 454.784 76.0461 455.088 76.6968 455.696C77.3581 456.304 77.6888 457.088 77.6888 458.048ZM73.8328 460.08C74.6435 460.08 75.2408 459.904 75.6248 459.552C76.0088 459.2 76.2008 458.698 76.2008 458.048C76.2008 456.672 75.4115 455.984 73.8328 455.984H71.6888V460.08H73.8328ZM80.9544 458.592C81.2104 458.09 81.5731 457.701 82.0424 457.424C82.5224 457.146 83.1038 457.008 83.7864 457.008V458.512H83.4024C81.7704 458.512 80.9544 459.397 80.9544 461.168V465.936H79.4984V457.168H80.9544V458.592ZM86.2192 455.744C85.9418 455.744 85.7072 455.648 85.5152 455.456C85.3232 455.264 85.2272 455.029 85.2272 454.752C85.2272 454.474 85.3232 454.24 85.5152 454.048C85.7072 453.856 85.9418 453.76 86.2192 453.76C86.4858 453.76 86.7098 453.856 86.8912 454.048C87.0832 454.24 87.1792 454.474 87.1792 454.752C87.1792 455.029 87.0832 455.264 86.8912 455.456C86.7098 455.648 86.4858 455.744 86.2192 455.744ZM86.9232 457.168V465.936H85.4672V457.168H86.9232ZM88.8607 461.536C88.8607 460.629 89.042 459.84 89.4047 459.168C89.7673 458.485 90.2687 457.957 90.9087 457.584C91.5593 457.21 92.3007 457.024 93.1327 457.024C94.21 457.024 95.0953 457.285 95.7887 457.808C96.4927 458.33 96.9567 459.056 97.1807 459.984H95.6127C95.4633 459.45 95.17 459.029 94.7327 458.72C94.306 458.41 93.7727 458.256 93.1327 458.256C92.3007 458.256 91.6287 458.544 91.1167 459.12C90.6047 459.685 90.3487 460.49 90.3487 461.536C90.3487 462.592 90.6047 463.408 91.1167 463.984C91.6287 464.56 92.3007 464.848 93.1327 464.848C93.7727 464.848 94.306 464.698 94.7327 464.4C95.1593 464.101 95.4527 463.674 95.6127 463.12H97.1807C96.946 464.016 96.4767 464.736 95.7727 465.28C95.0687 465.813 94.1887 466.08 93.1327 466.08C92.3007 466.08 91.5593 465.893 90.9087 465.52C90.2687 465.146 89.7673 464.618 89.4047 463.936C89.042 463.253 88.8607 462.453 88.8607 461.536ZM99.8754 455.744C99.5981 455.744 99.3634 455.648 99.1714 455.456C98.9794 455.264 98.8834 455.029 98.8834 454.752C98.8834 454.474 98.9794 454.24 99.1714 454.048C99.3634 453.856 99.5981 453.76 99.8754 453.76C100.142 453.76 100.366 453.856 100.547 454.048C100.739 454.24 100.835 454.474 100.835 454.752C100.835 455.029 100.739 455.264 100.547 455.456C100.366 455.648 100.142 455.744 99.8754 455.744ZM100.579 457.168V465.936H99.1234V457.168H100.579ZM107.333 457.008C108.4 457.008 109.264 457.333 109.925 457.984C110.586 458.624 110.917 459.552 110.917 460.768V465.936H109.477V460.976C109.477 460.101 109.258 459.434 108.821 458.976C108.384 458.506 107.786 458.272 107.029 458.272C106.261 458.272 105.648 458.512 105.189 458.992C104.741 459.472 104.517 460.17 104.517 461.088V465.936H103.061V457.168H104.517V458.416C104.805 457.968 105.194 457.621 105.685 457.376C106.186 457.13 106.736 457.008 107.333 457.008ZM116.911 457.024C117.669 457.024 118.33 457.189 118.895 457.52C119.471 457.85 119.898 458.266 120.175 458.768V457.168H121.647V466.128C121.647 466.928 121.477 467.637 121.135 468.256C120.794 468.885 120.303 469.376 119.663 469.728C119.034 470.08 118.298 470.256 117.455 470.256C116.303 470.256 115.343 469.984 114.575 469.44C113.807 468.896 113.354 468.154 113.215 467.216H114.655C114.815 467.749 115.146 468.176 115.647 468.496C116.149 468.826 116.751 468.992 117.455 468.992C118.255 468.992 118.906 468.741 119.407 468.24C119.919 467.738 120.175 467.034 120.175 466.128V464.288C119.887 464.8 119.461 465.226 118.895 465.568C118.33 465.909 117.669 466.08 116.911 466.08C116.133 466.08 115.423 465.888 114.783 465.504C114.154 465.12 113.658 464.581 113.295 463.888C112.933 463.194 112.751 462.405 112.751 461.52C112.751 460.624 112.933 459.84 113.295 459.168C113.658 458.485 114.154 457.957 114.783 457.584C115.423 457.21 116.133 457.024 116.911 457.024ZM120.175 461.536C120.175 460.874 120.042 460.298 119.775 459.808C119.509 459.317 119.146 458.944 118.687 458.688C118.239 458.421 117.743 458.288 117.199 458.288C116.655 458.288 116.159 458.416 115.711 458.672C115.263 458.928 114.906 459.301 114.639 459.792C114.373 460.282 114.239 460.858 114.239 461.52C114.239 462.192 114.373 462.778 114.639 463.28C114.906 463.77 115.263 464.149 115.711 464.416C116.159 464.672 116.655 464.8 117.199 464.8C117.743 464.8 118.239 464.672 118.687 464.416C119.146 464.149 119.509 463.77 119.775 463.28C120.042 462.778 120.175 462.197 120.175 461.536ZM129.829 454.784V465.936H128.373V454.784H129.829ZM136.583 457.008C137.65 457.008 138.514 457.333 139.175 457.984C139.836 458.624 140.167 459.552 140.167 460.768V465.936H138.727V460.976C138.727 460.101 138.508 459.434 138.071 458.976C137.634 458.506 137.036 458.272 136.279 458.272C135.511 458.272 134.898 458.512 134.439 458.992C133.991 459.472 133.767 460.17 133.767 461.088V465.936H132.311V457.168H133.767V458.416C134.055 457.968 134.444 457.621 134.935 457.376C135.436 457.13 135.986 457.008 136.583 457.008ZM146.113 458.368H144.273V465.936H142.817V458.368H141.681V457.168H142.817V456.544C142.817 455.562 143.068 454.848 143.569 454.4C144.081 453.941 144.897 453.712 146.017 453.712V454.928C145.377 454.928 144.924 455.056 144.657 455.312C144.401 455.557 144.273 455.968 144.273 456.544V457.168H146.113V458.368ZM151.635 466.08C150.814 466.08 150.067 465.893 149.395 465.52C148.734 465.146 148.211 464.618 147.827 463.936C147.454 463.242 147.267 462.442 147.267 461.536C147.267 460.64 147.459 459.85 147.843 459.168C148.238 458.474 148.771 457.946 149.443 457.584C150.115 457.21 150.867 457.024 151.699 457.024C152.531 457.024 153.283 457.21 153.955 457.584C154.627 457.946 155.155 458.469 155.539 459.152C155.934 459.834 156.131 460.629 156.131 461.536C156.131 462.442 155.928 463.242 155.523 463.936C155.128 464.618 154.59 465.146 153.907 465.52C153.224 465.893 152.467 466.08 151.635 466.08ZM151.635 464.8C152.158 464.8 152.648 464.677 153.107 464.432C153.566 464.186 153.934 463.818 154.211 463.328C154.499 462.837 154.643 462.24 154.643 461.536C154.643 460.832 154.504 460.234 154.227 459.744C153.95 459.253 153.587 458.89 153.139 458.656C152.691 458.41 152.206 458.288 151.683 458.288C151.15 458.288 150.659 458.41 150.211 458.656C149.774 458.89 149.422 459.253 149.155 459.744C148.888 460.234 148.755 460.832 148.755 461.536C148.755 462.25 148.883 462.853 149.139 463.344C149.406 463.834 149.758 464.202 150.195 464.448C150.632 464.682 151.112 464.8 151.635 464.8ZM169.767 458.048C169.767 458.976 169.447 459.749 168.807 460.368C168.178 460.976 167.212 461.28 165.911 461.28H163.767V465.936H162.311V454.784H165.911C167.17 454.784 168.124 455.088 168.775 455.696C169.436 456.304 169.767 457.088 169.767 458.048ZM165.911 460.08C166.722 460.08 167.319 459.904 167.703 459.552C168.087 459.2 168.279 458.698 168.279 458.048C168.279 456.672 167.49 455.984 165.911 455.984H163.767V460.08H165.911ZM175.401 466.08C174.579 466.08 173.833 465.893 173.161 465.52C172.499 465.146 171.977 464.618 171.593 463.936C171.219 463.242 171.033 462.442 171.033 461.536C171.033 460.64 171.225 459.85 171.609 459.168C172.003 458.474 172.537 457.946 173.209 457.584C173.881 457.21 174.633 457.024 175.465 457.024C176.297 457.024 177.049 457.21 177.721 457.584C178.393 457.946 178.921 458.469 179.305 459.152C179.699 459.834 179.897 460.629 179.897 461.536C179.897 462.442 179.694 463.242 179.289 463.936C178.894 464.618 178.355 465.146 177.673 465.52C176.99 465.893 176.233 466.08 175.401 466.08ZM175.401 464.8C175.923 464.8 176.414 464.677 176.873 464.432C177.331 464.186 177.699 463.818 177.977 463.328C178.265 462.837 178.409 462.24 178.409 461.536C178.409 460.832 178.27 460.234 177.993 459.744C177.715 459.253 177.353 458.89 176.905 458.656C176.457 458.41 175.971 458.288 175.449 458.288C174.915 458.288 174.425 458.41 173.977 458.656C173.539 458.89 173.187 459.253 172.921 459.744C172.654 460.234 172.521 460.832 172.521 461.536C172.521 462.25 172.649 462.853 172.905 463.344C173.171 463.834 173.523 464.202 173.961 464.448C174.398 464.682 174.878 464.8 175.401 464.8ZM182.563 455.744C182.286 455.744 182.051 455.648 181.859 455.456C181.667 455.264 181.571 455.029 181.571 454.752C181.571 454.474 181.667 454.24 181.859 454.048C182.051 453.856 182.286 453.76 182.563 453.76C182.83 453.76 183.054 453.856 183.235 454.048C183.427 454.24 183.523 454.474 183.523 454.752C183.523 455.029 183.427 455.264 183.235 455.456C183.054 455.648 182.83 455.744 182.563 455.744ZM183.267 457.168V465.936H181.811V457.168H183.267ZM190.02 457.008C191.087 457.008 191.951 457.333 192.612 457.984C193.274 458.624 193.604 459.552 193.604 460.768V465.936H192.164V460.976C192.164 460.101 191.946 459.434 191.508 458.976C191.071 458.506 190.474 458.272 189.716 458.272C188.948 458.272 188.335 458.512 187.876 458.992C187.428 459.472 187.204 460.17 187.204 461.088V465.936H185.748V457.168H187.204V458.416C187.492 457.968 187.882 457.621 188.372 457.376C188.874 457.13 189.423 457.008 190.02 457.008ZM197.759 458.368V463.536C197.759 463.962 197.849 464.266 198.031 464.448C198.212 464.618 198.527 464.704 198.975 464.704H200.047V465.936H198.735C197.924 465.936 197.316 465.749 196.911 465.376C196.505 465.002 196.303 464.389 196.303 463.536V458.368H195.167V457.168H196.303V454.96H197.759V457.168H200.047V458.368H197.759Z" fill="white" fill-opacity="0.8"/>
<path d="M53.0008 393.027C53.0008 393.027 51.932 390.769 50.8129 389.717C49.6605 388.633 47.2461 387.674 47.2461 387.674C47.2461 387.674 49.6908 386.795 50.8067 385.671C51.896 384.573 52.8033 382.131 52.8033 382.131C52.8033 382.131 53.9763 384.564 55.2067 385.664C56.2949 386.638 58.5581 387.484 58.5581 387.484C58.5581 387.484 56.3014 388.629 55.2129 389.71C54.1087 390.808 53.0008 393.027 53.0008 393.027Z" fill="white"/>
<path d="M77.688 389.112C77.688 390.04 77.368 390.813 76.728 391.432C76.0987 392.04 75.1333 392.344 73.832 392.344H71.688V397H70.232V385.848H73.832C75.0907 385.848 76.0453 386.152 76.696 386.76C77.3573 387.368 77.688 388.152 77.688 389.112ZM73.832 391.144C74.6427 391.144 75.24 390.968 75.624 390.616C76.008 390.264 76.2 389.763 76.2 389.112C76.2 387.736 75.4107 387.048 73.832 387.048H71.688V391.144H73.832ZM80.9536 389.656C81.2096 389.155 81.5723 388.765 82.0416 388.488C82.5216 388.211 83.103 388.072 83.7856 388.072V389.576H83.4016C81.7696 389.576 80.9536 390.461 80.9536 392.232V397H79.4976V388.232H80.9536V389.656ZM86.2184 386.808C85.941 386.808 85.7064 386.712 85.5144 386.52C85.3224 386.328 85.2264 386.093 85.2264 385.816C85.2264 385.539 85.3224 385.304 85.5144 385.112C85.7064 384.92 85.941 384.824 86.2184 384.824C86.485 384.824 86.709 384.92 86.8904 385.112C87.0824 385.304 87.1784 385.539 87.1784 385.816C87.1784 386.093 87.0824 386.328 86.8904 386.52C86.709 386.712 86.485 386.808 86.2184 386.808ZM86.9224 388.232V397H85.4664V388.232H86.9224ZM88.8599 392.6C88.8599 391.693 89.0412 390.904 89.4039 390.232C89.7665 389.549 90.2679 389.021 90.9079 388.648C91.5585 388.275 92.2999 388.088 93.1319 388.088C94.2092 388.088 95.0945 388.349 95.7879 388.872C96.4919 389.395 96.9559 390.12 97.1799 391.048H95.6119C95.4625 390.515 95.1692 390.093 94.7319 389.784C94.3052 389.475 93.7719 389.32 93.1319 389.32C92.2999 389.32 91.6279 389.608 91.1159 390.184C90.6039 390.749 90.3479 391.555 90.3479 392.6C90.3479 393.656 90.6039 394.472 91.1159 395.048C91.6279 395.624 92.2999 395.912 93.1319 395.912C93.7719 395.912 94.3052 395.763 94.7319 395.464C95.1585 395.165 95.4519 394.739 95.6119 394.184H97.1799C96.9452 395.08 96.4759 395.8 95.7719 396.344C95.0679 396.877 94.1879 397.144 93.1319 397.144C92.2999 397.144 91.5585 396.957 90.9079 396.584C90.2679 396.211 89.7665 395.683 89.4039 395C89.0412 394.317 88.8599 393.517 88.8599 392.6ZM99.8746 386.808C99.5973 386.808 99.3626 386.712 99.1706 386.52C98.9786 386.328 98.8826 386.093 98.8826 385.816C98.8826 385.539 98.9786 385.304 99.1706 385.112C99.3626 384.92 99.5973 384.824 99.8746 384.824C100.141 384.824 100.365 384.92 100.547 385.112C100.739 385.304 100.835 385.539 100.835 385.816C100.835 386.093 100.739 386.328 100.547 386.52C100.365 386.712 100.141 386.808 99.8746 386.808ZM100.579 388.232V397H99.1226V388.232H100.579ZM107.332 388.072C108.399 388.072 109.263 388.397 109.924 389.048C110.585 389.688 110.916 390.616 110.916 391.832V397H109.476V392.04C109.476 391.165 109.257 390.499 108.82 390.04C108.383 389.571 107.785 389.336 107.028 389.336C106.26 389.336 105.647 389.576 105.188 390.056C104.74 390.536 104.516 391.235 104.516 392.152V397H103.06V388.232H104.516V389.48C104.804 389.032 105.193 388.685 105.684 388.44C106.185 388.195 106.735 388.072 107.332 388.072ZM116.911 388.088C117.668 388.088 118.329 388.253 118.895 388.584C119.471 388.915 119.897 389.331 120.175 389.832V388.232H121.647V397.192C121.647 397.992 121.476 398.701 121.135 399.32C120.793 399.949 120.303 400.44 119.663 400.792C119.033 401.144 118.297 401.32 117.455 401.32C116.303 401.32 115.343 401.048 114.575 400.504C113.807 399.96 113.353 399.219 113.215 398.28H114.655C114.815 398.813 115.145 399.24 115.647 399.56C116.148 399.891 116.751 400.056 117.455 400.056C118.255 400.056 118.905 399.805 119.407 399.304C119.919 398.803 120.175 398.099 120.175 397.192V395.352C119.887 395.864 119.46 396.291 118.895 396.632C118.329 396.973 117.668 397.144 116.911 397.144C116.132 397.144 115.423 396.952 114.783 396.568C114.153 396.184 113.657 395.645 113.295 394.952C112.932 394.259 112.751 393.469 112.751 392.584C112.751 391.688 112.932 390.904 113.295 390.232C113.657 389.549 114.153 389.021 114.783 388.648C115.423 388.275 116.132 388.088 116.911 388.088ZM120.175 392.6C120.175 391.939 120.041 391.363 119.775 390.872C119.508 390.381 119.145 390.008 118.687 389.752C118.239 389.485 117.743 389.352 117.199 389.352C116.655 389.352 116.159 389.48 115.711 389.736C115.263 389.992 114.905 390.365 114.639 390.856C114.372 391.347 114.239 391.923 114.239 392.584C114.239 393.256 114.372 393.843 114.639 394.344C114.905 394.835 115.263 395.213 115.711 395.48C116.159 395.736 116.655 395.864 117.199 395.864C117.743 395.864 118.239 395.736 118.687 395.48C119.145 395.213 119.508 394.835 119.775 394.344C120.041 393.843 120.175 393.261 120.175 392.6ZM129.829 385.848V397H128.373V385.848H129.829ZM136.582 388.072C137.649 388.072 138.513 388.397 139.174 389.048C139.835 389.688 140.166 390.616 140.166 391.832V397H138.726V392.04C138.726 391.165 138.507 390.499 138.07 390.04C137.633 389.571 137.035 389.336 136.278 389.336C135.51 389.336 134.897 389.576 134.438 390.056C133.99 390.536 133.766 391.235 133.766 392.152V397H132.31V388.232H133.766V389.48C134.054 389.032 134.443 388.685 134.934 388.44C135.435 388.195 135.985 388.072 136.582 388.072ZM146.113 389.432H144.273V397H142.817V389.432H141.681V388.232H142.817V387.608C142.817 386.627 143.067 385.912 143.569 385.464C144.081 385.005 144.897 384.776 146.016 384.776V385.992C145.377 385.992 144.923 386.12 144.657 386.376C144.401 386.621 144.273 387.032 144.273 387.608V388.232H146.113V389.432ZM151.634 397.144C150.813 397.144 150.066 396.957 149.394 396.584C148.733 396.211 148.21 395.683 147.826 395C147.453 394.307 147.266 393.507 147.266 392.6C147.266 391.704 147.458 390.915 147.842 390.232C148.237 389.539 148.77 389.011 149.442 388.648C150.114 388.275 150.866 388.088 151.698 388.088C152.53 388.088 153.282 388.275 153.954 388.648C154.626 389.011 155.154 389.533 155.538 390.216C155.933 390.899 156.13 391.693 156.13 392.6C156.13 393.507 155.927 394.307 155.522 395C155.127 395.683 154.589 396.211 153.906 396.584C153.223 396.957 152.466 397.144 151.634 397.144ZM151.634 395.864C152.157 395.864 152.647 395.741 153.106 395.496C153.565 395.251 153.933 394.883 154.21 394.392C154.498 393.901 154.642 393.304 154.642 392.6C154.642 391.896 154.503 391.299 154.226 390.808C153.949 390.317 153.586 389.955 153.138 389.72C152.69 389.475 152.205 389.352 151.682 389.352C151.149 389.352 150.658 389.475 150.21 389.72C149.773 389.955 149.421 390.317 149.154 390.808C148.887 391.299 148.754 391.896 148.754 392.6C148.754 393.315 148.882 393.917 149.138 394.408C149.405 394.899 149.757 395.267 150.194 395.512C150.631 395.747 151.111 395.864 151.634 395.864ZM169.766 389.112C169.766 390.04 169.446 390.813 168.806 391.432C168.177 392.04 167.211 392.344 165.91 392.344H163.766V397H162.31V385.848H165.91C167.169 385.848 168.123 386.152 168.774 386.76C169.435 387.368 169.766 388.152 169.766 389.112ZM165.91 391.144C166.721 391.144 167.318 390.968 167.702 390.616C168.086 390.264 168.278 389.763 168.278 389.112C168.278 387.736 167.489 387.048 165.91 387.048H163.766V391.144H165.91ZM175.4 397.144C174.578 397.144 173.832 396.957 173.16 396.584C172.498 396.211 171.976 395.683 171.592 395C171.218 394.307 171.032 393.507 171.032 392.6C171.032 391.704 171.224 390.915 171.608 390.232C172.002 389.539 172.536 389.011 173.208 388.648C173.88 388.275 174.632 388.088 175.464 388.088C176.296 388.088 177.048 388.275 177.72 388.648C178.392 389.011 178.92 389.533 179.304 390.216C179.698 390.899 179.896 391.693 179.896 392.6C179.896 393.507 179.693 394.307 179.288 395C178.893 395.683 178.354 396.211 177.672 396.584C176.989 396.957 176.232 397.144 175.4 397.144ZM175.4 395.864C175.922 395.864 176.413 395.741 176.872 395.496C177.33 395.251 177.698 394.883 177.976 394.392C178.264 393.901 178.408 393.304 178.408 392.6C178.408 391.896 178.269 391.299 177.992 390.808C177.714 390.317 177.352 389.955 176.904 389.72C176.456 389.475 175.97 389.352 175.448 389.352C174.914 389.352 174.424 389.475 173.976 389.72C173.538 389.955 173.186 390.317 172.92 390.808C172.653 391.299 172.52 391.896 172.52 392.6C172.52 393.315 172.648 393.917 172.904 394.408C173.17 394.899 173.522 395.267 173.96 395.512C174.397 395.747 174.877 395.864 175.4 395.864ZM182.562 386.808C182.285 386.808 182.05 386.712 181.858 386.52C181.666 386.328 181.57 386.093 181.57 385.816C181.57 385.539 181.666 385.304 181.858 385.112C182.05 384.92 182.285 384.824 182.562 384.824C182.829 384.824 183.053 384.92 183.234 385.112C183.426 385.304 183.522 385.539 183.522 385.816C183.522 386.093 183.426 386.328 183.234 386.52C183.053 386.712 182.829 386.808 182.562 386.808ZM183.266 388.232V397H181.81V388.232H183.266ZM190.02 388.072C191.086 388.072 191.95 388.397 192.612 389.048C193.273 389.688 193.604 390.616 193.604 391.832V397H192.164V392.04C192.164 391.165 191.945 390.499 191.508 390.04C191.07 389.571 190.473 389.336 189.716 389.336C188.948 389.336 188.334 389.576 187.876 390.056C187.428 390.536 187.204 391.235 187.204 392.152V397H185.748V388.232H187.204V389.48C187.492 389.032 187.881 388.685 188.372 388.44C188.873 388.195 189.422 388.072 190.02 388.072ZM197.758 389.432V394.6C197.758 395.027 197.849 395.331 198.03 395.512C198.211 395.683 198.526 395.768 198.974 395.768H200.046V397H198.734C197.923 397 197.315 396.813 196.91 396.44C196.505 396.067 196.302 395.453 196.302 394.6V389.432H195.166V388.232H196.302V386.024H197.758V388.232H200.046V389.432H197.758Z" fill="white" fill-opacity="0.8"/>
<path d="M53.0008 427.706C53.0008 427.706 51.932 425.448 50.8129 424.396C49.6605 423.312 47.2461 422.353 47.2461 422.353C47.2461 422.353 49.6908 421.474 50.8067 420.35C51.896 419.252 52.8033 416.81 52.8033 416.81C52.8033 416.81 53.9763 419.243 55.2067 420.343C56.2949 421.317 58.5581 422.163 58.5581 422.163C58.5581 422.163 56.3014 423.307 55.2129 424.389C54.1087 425.487 53.0008 427.706 53.0008 427.706Z" fill="white"/>
<path d="M77.6888 423.369C77.6888 424.297 77.3688 425.07 76.7288 425.689C76.0995 426.297 75.1341 426.601 73.8328 426.601H71.6888V431.257H70.2328V420.105H73.8328C75.0915 420.105 76.0461 420.409 76.6968 421.017C77.3581 421.625 77.6888 422.409 77.6888 423.369ZM73.8328 425.401C74.6435 425.401 75.2408 425.225 75.6248 424.873C76.0088 424.521 76.2008 424.02 76.2008 423.369C76.2008 421.993 75.4115 421.305 73.8328 421.305H71.6888V425.401H73.8328ZM80.9544 423.913C81.2104 423.412 81.5731 423.022 82.0424 422.745C82.5224 422.468 83.1038 422.329 83.7864 422.329V423.833H83.4024C81.7704 423.833 80.9544 424.718 80.9544 426.489V431.257H79.4984V422.489H80.9544V423.913ZM86.2192 421.065C85.9418 421.065 85.7072 420.969 85.5152 420.777C85.3232 420.585 85.2272 420.35 85.2272 420.073C85.2272 419.796 85.3232 419.561 85.5152 419.369C85.7072 419.177 85.9418 419.081 86.2192 419.081C86.4858 419.081 86.7098 419.177 86.8912 419.369C87.0832 419.561 87.1792 419.796 87.1792 420.073C87.1792 420.35 87.0832 420.585 86.8912 420.777C86.7098 420.969 86.4858 421.065 86.2192 421.065ZM86.9232 422.489V431.257H85.4672V422.489H86.9232ZM88.8607 426.857C88.8607 425.95 89.042 425.161 89.4047 424.489C89.7673 423.806 90.2687 423.278 90.9087 422.905C91.5593 422.532 92.3007 422.345 93.1327 422.345C94.21 422.345 95.0953 422.606 95.7887 423.129C96.4927 423.652 96.9567 424.377 97.1807 425.305H95.6127C95.4633 424.772 95.17 424.35 94.7327 424.041C94.306 423.732 93.7727 423.577 93.1327 423.577C92.3007 423.577 91.6287 423.865 91.1167 424.441C90.6047 425.006 90.3487 425.812 90.3487 426.857C90.3487 427.913 90.6047 428.729 91.1167 429.305C91.6287 429.881 92.3007 430.169 93.1327 430.169C93.7727 430.169 94.306 430.02 94.7327 429.721C95.1593 429.422 95.4527 428.996 95.6127 428.441H97.1807C96.946 429.337 96.4767 430.057 95.7727 430.601C95.0687 431.134 94.1887 431.401 93.1327 431.401C92.3007 431.401 91.5593 431.214 90.9087 430.841C90.2687 430.468 89.7673 429.94 89.4047 429.257C89.042 428.574 88.8607 427.774 88.8607 426.857ZM99.8754 421.065C99.5981 421.065 99.3634 420.969 99.1714 420.777C98.9794 420.585 98.8834 420.35 98.8834 420.073C98.8834 419.796 98.9794 419.561 99.1714 419.369C99.3634 419.177 99.5981 419.081 99.8754 419.081C100.142 419.081 100.366 419.177 100.547 419.369C100.739 419.561 100.835 419.796 100.835 420.073C100.835 420.35 100.739 420.585 100.547 420.777C100.366 420.969 100.142 421.065 99.8754 421.065ZM100.579 422.489V431.257H99.1234V422.489H100.579ZM107.333 422.329C108.4 422.329 109.264 422.654 109.925 423.305C110.586 423.945 110.917 424.873 110.917 426.089V431.257H109.477V426.297C109.477 425.422 109.258 424.756 108.821 424.297C108.384 423.828 107.786 423.593 107.029 423.593C106.261 423.593 105.648 423.833 105.189 424.313C104.741 424.793 104.517 425.492 104.517 426.409V431.257H103.061V422.489H104.517V423.737C104.805 423.289 105.194 422.942 105.685 422.697C106.186 422.452 106.736 422.329 107.333 422.329ZM116.911 422.345C117.669 422.345 118.33 422.51 118.895 422.841C119.471 423.172 119.898 423.588 120.175 424.089V422.489H121.647V431.449C121.647 432.249 121.477 432.958 121.135 433.577C120.794 434.206 120.303 434.697 119.663 435.049C119.034 435.401 118.298 435.577 117.455 435.577C116.303 435.577 115.343 435.305 114.575 434.761C113.807 434.217 113.354 433.476 113.215 432.537H114.655C114.815 433.07 115.146 433.497 115.647 433.817C116.149 434.148 116.751 434.313 117.455 434.313C118.255 434.313 118.906 434.062 119.407 433.561C119.919 433.06 120.175 432.356 120.175 431.449V429.609C119.887 430.121 119.461 430.548 118.895 430.889C118.33 431.23 117.669 431.401 116.911 431.401C116.133 431.401 115.423 431.209 114.783 430.825C114.154 430.441 113.658 429.902 113.295 429.209C112.933 428.516 112.751 427.726 112.751 426.841C112.751 425.945 112.933 425.161 113.295 424.489C113.658 423.806 114.154 423.278 114.783 422.905C115.423 422.532 116.133 422.345 116.911 422.345ZM120.175 426.857C120.175 426.196 120.042 425.62 119.775 425.129C119.509 424.638 119.146 424.265 118.687 424.009C118.239 423.742 117.743 423.609 117.199 423.609C116.655 423.609 116.159 423.737 115.711 423.993C115.263 424.249 114.906 424.622 114.639 425.113C114.373 425.604 114.239 426.18 114.239 426.841C114.239 427.513 114.373 428.1 114.639 428.601C114.906 429.092 115.263 429.47 115.711 429.737C116.159 429.993 116.655 430.121 117.199 430.121C117.743 430.121 118.239 429.993 118.687 429.737C119.146 429.47 119.509 429.092 119.775 428.601C120.042 428.1 120.175 427.518 120.175 426.857ZM129.829 420.105V431.257H128.373V420.105H129.829ZM136.583 422.329C137.65 422.329 138.514 422.654 139.175 423.305C139.836 423.945 140.167 424.873 140.167 426.089V431.257H138.727V426.297C138.727 425.422 138.508 424.756 138.071 424.297C137.634 423.828 137.036 423.593 136.279 423.593C135.511 423.593 134.898 423.833 134.439 424.313C133.991 424.793 133.767 425.492 133.767 426.409V431.257H132.311V422.489H133.767V423.737C134.055 423.289 134.444 422.942 134.935 422.697C135.436 422.452 135.986 422.329 136.583 422.329ZM146.113 423.689H144.273V431.257H142.817V423.689H141.681V422.489H142.817V421.865C142.817 420.884 143.068 420.169 143.569 419.721C144.081 419.262 144.897 419.033 146.017 419.033V420.249C145.377 420.249 144.924 420.377 144.657 420.633C144.401 420.878 144.273 421.289 144.273 421.865V422.489H146.113V423.689ZM151.635 431.401C150.814 431.401 150.067 431.214 149.395 430.841C148.734 430.468 148.211 429.94 147.827 429.257C147.454 428.564 147.267 427.764 147.267 426.857C147.267 425.961 147.459 425.172 147.843 424.489C148.238 423.796 148.771 423.268 149.443 422.905C150.115 422.532 150.867 422.345 151.699 422.345C152.531 422.345 153.283 422.532 153.955 422.905C154.627 423.268 155.155 423.79 155.539 424.473C155.934 425.156 156.131 425.95 156.131 426.857C156.131 427.764 155.928 428.564 155.523 429.257C155.128 429.94 154.59 430.468 153.907 430.841C153.224 431.214 152.467 431.401 151.635 431.401ZM151.635 430.121C152.158 430.121 152.648 429.998 153.107 429.753C153.566 429.508 153.934 429.14 154.211 428.649C154.499 428.158 154.643 427.561 154.643 426.857C154.643 426.153 154.504 425.556 154.227 425.065C153.95 424.574 153.587 424.212 153.139 423.977C152.691 423.732 152.206 423.609 151.683 423.609C151.15 423.609 150.659 423.732 150.211 423.977C149.774 424.212 149.422 424.574 149.155 425.065C148.888 425.556 148.755 426.153 148.755 426.857C148.755 427.572 148.883 428.174 149.139 428.665C149.406 429.156 149.758 429.524 150.195 429.769C150.632 430.004 151.112 430.121 151.635 430.121ZM169.767 423.369C169.767 424.297 169.447 425.07 168.807 425.689C168.178 426.297 167.212 426.601 165.911 426.601H163.767V431.257H162.311V420.105H165.911C167.17 420.105 168.124 420.409 168.775 421.017C169.436 421.625 169.767 422.409 169.767 423.369ZM165.911 425.401C166.722 425.401 167.319 425.225 167.703 424.873C168.087 424.521 168.279 424.02 168.279 423.369C168.279 421.993 167.49 421.305 165.911 421.305H163.767V425.401H165.911ZM175.401 431.401C174.579 431.401 173.833 431.214 173.161 430.841C172.499 430.468 171.977 429.94 171.593 429.257C171.219 428.564 171.033 427.764 171.033 426.857C171.033 425.961 171.225 425.172 171.609 424.489C172.003 423.796 172.537 423.268 173.209 422.905C173.881 422.532 174.633 422.345 175.465 422.345C176.297 422.345 177.049 422.532 177.721 422.905C178.393 423.268 178.921 423.79 179.305 424.473C179.699 425.156 179.897 425.95 179.897 426.857C179.897 427.764 179.694 428.564 179.289 429.257C178.894 429.94 178.355 430.468 177.673 430.841C176.99 431.214 176.233 431.401 175.401 431.401ZM175.401 430.121C175.923 430.121 176.414 429.998 176.873 429.753C177.331 429.508 177.699 429.14 177.977 428.649C178.265 428.158 178.409 427.561 178.409 426.857C178.409 426.153 178.27 425.556 177.993 425.065C177.715 424.574 177.353 424.212 176.905 423.977C176.457 423.732 175.971 423.609 175.449 423.609C174.915 423.609 174.425 423.732 173.977 423.977C173.539 424.212 173.187 424.574 172.921 425.065C172.654 425.556 172.521 426.153 172.521 426.857C172.521 427.572 172.649 428.174 172.905 428.665C173.171 429.156 173.523 429.524 173.961 429.769C174.398 430.004 174.878 430.121 175.401 430.121ZM182.563 421.065C182.286 421.065 182.051 420.969 181.859 420.777C181.667 420.585 181.571 420.35 181.571 420.073C181.571 419.796 181.667 419.561 181.859 419.369C182.051 419.177 182.286 419.081 182.563 419.081C182.83 419.081 183.054 419.177 183.235 419.369C183.427 419.561 183.523 419.796 183.523 420.073C183.523 420.35 183.427 420.585 183.235 420.777C183.054 420.969 182.83 421.065 182.563 421.065ZM183.267 422.489V431.257H181.811V422.489H183.267ZM190.02 422.329C191.087 422.329 191.951 422.654 192.612 423.305C193.274 423.945 193.604 424.873 193.604 426.089V431.257H192.164V426.297C192.164 425.422 191.946 424.756 191.508 424.297C191.071 423.828 190.474 423.593 189.716 423.593C188.948 423.593 188.335 423.833 187.876 424.313C187.428 424.793 187.204 425.492 187.204 426.409V431.257H185.748V422.489H187.204V423.737C187.492 423.289 187.882 422.942 188.372 422.697C188.874 422.452 189.423 422.329 190.02 422.329ZM197.759 423.689V428.857C197.759 429.284 197.849 429.588 198.031 429.769C198.212 429.94 198.527 430.025 198.975 430.025H200.047V431.257H198.735C197.924 431.257 197.316 431.07 196.911 430.697C196.505 430.324 196.303 429.71 196.303 428.857V423.689H195.167V422.489H196.303V420.281H197.759V422.489H200.047V423.689H197.759Z" fill="white" fill-opacity="0.8"/>
<path d="M48.8 90.2306H56.12C61.44 90.2306 63.84 91.7106 63.84 94.6706C63.84 97.6306 61.44 99.1106 56.12 99.1106H52.36V105.771H48.8V90.2306ZM52.36 96.9306H56.32C58.6 96.9306 60.14 96.2706 60.14 94.6706C60.14 93.0706 58.6 92.4106 56.32 92.4106H52.36V96.9306ZM66.0461 105.771V90.2306C67.6661 90.2306 69.3461 89.9506 69.3461 89.9506V105.771H66.0461ZM83.6406 102.731C83.6206 103.351 83.8406 103.831 84.4406 103.831C85.3606 103.831 85.9406 102.831 85.9406 102.831L86.6006 104.991C86.6006 104.991 85.6806 106.031 83.9406 106.031C81.5606 106.031 80.9606 104.511 80.9606 102.271C80.8606 102.451 78.9806 106.031 75.5406 106.031C73.5006 106.031 72.2606 105.071 72.2606 103.391C72.2606 101.531 74.4406 99.3906 80.5206 98.8706C80.5206 97.8506 80.2806 96.6106 78.2406 96.6106C75.2006 96.6106 75.1806 99.0706 75.1806 99.0706L71.7406 98.1906C71.7406 98.1906 72.8006 94.4106 78.4006 94.4106C82.0006 94.4106 83.9006 96.3306 83.8206 98.5906L83.6406 102.731ZM75.7006 102.711C75.7006 103.191 75.8606 103.831 76.8606 103.831C79.1806 103.831 80.5206 100.711 80.5206 100.711V99.9306C76.8806 100.271 75.7006 101.651 75.7006 102.711ZM97.8094 105.771V98.8106C97.8094 97.3306 96.7894 96.6106 95.0094 96.6106C92.3894 96.6106 91.7094 99.0506 91.7094 99.0506V105.771H88.4094V94.6706H90.3294L91.2694 97.8106C91.2694 97.8106 91.5094 94.4106 95.9094 94.4106C99.5894 94.4106 101.109 96.1506 101.109 98.9706V105.771H97.8094ZM120.63 98.8506H118.75V96.7306H120.23C122.81 96.7306 123.89 95.8906 123.89 94.5906C123.89 93.2706 122.69 92.4106 121.11 92.4106C116.97 92.4106 117.29 96.2306 117.29 96.2306L113.55 95.2106C113.55 95.2106 114.27 89.9506 120.95 89.9506C124.97 89.9506 127.59 91.8706 127.59 94.4306C127.59 97.0306 124.83 97.6506 124.55 97.7106C124.77 97.7506 127.99 98.2906 127.99 101.191C127.99 104.551 124.61 106.031 120.71 106.031C112.97 106.031 112.73 100.251 112.73 100.251L116.45 99.2906C116.45 99.2906 116.09 103.571 120.85 103.571C122.89 103.571 124.31 102.631 124.31 101.171C124.31 99.4906 122.81 98.8506 120.63 98.8506Z" fill="white"/>
<path d="M53.816 132.669C54.2213 132.733 54.5893 132.898 54.92 133.165C55.2613 133.432 55.528 133.762 55.72 134.157C55.9227 134.552 56.024 134.973 56.024 135.421C56.024 135.986 55.88 136.498 55.592 136.957C55.304 137.405 54.8827 137.762 54.328 138.029C53.784 138.285 53.1387 138.413 52.392 138.413H48.232V127.261H52.232C52.9893 127.261 53.6347 127.389 54.168 127.645C54.7013 127.89 55.1013 128.226 55.368 128.653C55.6347 129.08 55.768 129.56 55.768 130.093C55.768 130.754 55.5867 131.304 55.224 131.741C54.872 132.168 54.4027 132.477 53.816 132.669ZM49.688 132.077H52.136C52.8187 132.077 53.3467 131.917 53.72 131.597C54.0933 131.277 54.28 130.834 54.28 130.269C54.28 129.704 54.0933 129.261 53.72 128.941C53.3467 128.621 52.808 128.461 52.104 128.461H49.688V132.077ZM52.264 137.213C52.9893 137.213 53.5547 137.042 53.96 136.701C54.3653 136.36 54.568 135.885 54.568 135.277C54.568 134.658 54.3547 134.173 53.928 133.821C53.5013 133.458 52.9307 133.277 52.216 133.277H49.688V137.213H52.264ZM66.0445 133.693C66.0445 133.97 66.0285 134.264 65.9965 134.573H58.9885C59.0418 135.437 59.3352 136.114 59.8685 136.605C60.4125 137.085 61.0685 137.325 61.8365 137.325C62.4658 137.325 62.9885 137.181 63.4045 136.893C63.8312 136.594 64.1298 136.2 64.3005 135.709H65.8685C65.6338 136.552 65.1645 137.24 64.4605 137.773C63.7565 138.296 62.8818 138.557 61.8365 138.557C61.0045 138.557 60.2578 138.37 59.5965 137.997C58.9458 137.624 58.4338 137.096 58.0605 136.413C57.6872 135.72 57.5005 134.92 57.5005 134.013C57.5005 133.106 57.6818 132.312 58.0445 131.629C58.4072 130.946 58.9138 130.424 59.5645 130.061C60.2258 129.688 60.9832 129.501 61.8365 129.501C62.6685 129.501 63.4045 129.682 64.0445 130.045C64.6845 130.408 65.1752 130.909 65.5165 131.549C65.8685 132.178 66.0445 132.893 66.0445 133.693ZM64.5405 133.389C64.5405 132.834 64.4178 132.36 64.1725 131.965C63.9272 131.56 63.5912 131.256 63.1645 131.053C62.7485 130.84 62.2845 130.733 61.7725 130.733C61.0365 130.733 60.4072 130.968 59.8845 131.437C59.3725 131.906 59.0792 132.557 59.0045 133.389H64.5405ZM71.0704 138.557C70.3984 138.557 69.7957 138.445 69.2624 138.221C68.729 137.986 68.3077 137.666 67.9984 137.261C67.689 136.845 67.5184 136.37 67.4864 135.837H68.9904C69.033 136.274 69.2357 136.632 69.5984 136.909C69.9717 137.186 70.457 137.325 71.0544 137.325C71.609 137.325 72.0464 137.202 72.3664 136.957C72.6864 136.712 72.8464 136.402 72.8464 136.029C72.8464 135.645 72.6757 135.362 72.3344 135.181C71.993 134.989 71.465 134.802 70.7504 134.621C70.0997 134.45 69.5664 134.28 69.1504 134.109C68.745 133.928 68.393 133.666 68.0944 133.325C67.8064 132.973 67.6624 132.514 67.6624 131.949C67.6624 131.501 67.7957 131.09 68.0624 130.717C68.329 130.344 68.7077 130.05 69.1984 129.837C69.689 129.613 70.249 129.501 70.8784 129.501C71.849 129.501 72.633 129.746 73.2304 130.237C73.8277 130.728 74.1477 131.4 74.1904 132.253H72.7344C72.7024 131.794 72.5157 131.426 72.1744 131.149C71.8437 130.872 71.3957 130.733 70.8304 130.733C70.3077 130.733 69.8917 130.845 69.5824 131.069C69.273 131.293 69.1184 131.586 69.1184 131.949C69.1184 132.237 69.209 132.477 69.3904 132.669C69.5824 132.85 69.817 133 70.0944 133.117C70.3824 133.224 70.777 133.346 71.2784 133.485C71.9077 133.656 72.4197 133.826 72.8144 133.997C73.209 134.157 73.545 134.402 73.8224 134.733C74.1104 135.064 74.2597 135.496 74.2704 136.029C74.2704 136.509 74.137 136.941 73.8704 137.325C73.6037 137.709 73.225 138.013 72.7344 138.237C72.2544 138.45 71.6997 138.557 71.0704 138.557ZM78.1018 130.845V136.013C78.1018 136.44 78.1924 136.744 78.3738 136.925C78.5551 137.096 78.8698 137.181 79.3177 137.181H80.3898V138.413H79.0778C78.2671 138.413 77.6591 138.226 77.2538 137.853C76.8484 137.48 76.6458 136.866 76.6458 136.013V130.845H75.5098V129.645H76.6458V127.437H78.1018V129.645H80.3898V130.845H78.1018ZM85.8755 134.013C85.8755 133.106 86.0568 132.317 86.4195 131.645C86.7822 130.962 87.2835 130.434 87.9235 130.061C88.5742 129.688 89.3155 129.501 90.1475 129.501C91.2248 129.501 92.1102 129.762 92.8035 130.285C93.5075 130.808 93.9715 131.533 94.1955 132.461H92.6275C92.4782 131.928 92.1848 131.506 91.7475 131.197C91.3208 130.888 90.7875 130.733 90.1475 130.733C89.3155 130.733 88.6435 131.021 88.1315 131.597C87.6195 132.162 87.3635 132.968 87.3635 134.013C87.3635 135.069 87.6195 135.885 88.1315 136.461C88.6435 137.037 89.3155 137.325 90.1475 137.325C90.7875 137.325 91.3208 137.176 91.7475 136.877C92.1742 136.578 92.4675 136.152 92.6275 135.597H94.1955C93.9608 136.493 93.4915 137.213 92.7875 137.757C92.0835 138.29 91.2035 138.557 90.1475 138.557C89.3155 138.557 88.5742 138.37 87.9235 137.997C87.2835 137.624 86.7822 137.096 86.4195 136.413C86.0568 135.73 85.8755 134.93 85.8755 134.013ZM100.49 129.485C101.152 129.485 101.749 129.629 102.282 129.917C102.816 130.194 103.232 130.616 103.53 131.181C103.84 131.746 103.994 132.434 103.994 133.245V138.413H102.554V133.453C102.554 132.578 102.336 131.912 101.898 131.453C101.461 130.984 100.864 130.749 100.106 130.749C99.3383 130.749 98.7249 130.989 98.2663 131.469C97.8183 131.949 97.5943 132.648 97.5943 133.565V138.413H96.1383V126.573H97.5943V130.893C97.8823 130.445 98.2769 130.098 98.7783 129.853C99.2903 129.608 99.8609 129.485 100.49 129.485ZM110.197 138.557C109.375 138.557 108.629 138.37 107.957 137.997C107.295 137.624 106.773 137.096 106.389 136.413C106.015 135.72 105.829 134.92 105.829 134.013C105.829 133.117 106.021 132.328 106.405 131.645C106.799 130.952 107.333 130.424 108.005 130.061C108.677 129.688 109.429 129.501 110.261 129.501C111.093 129.501 111.845 129.688 112.517 130.061C113.189 130.424 113.717 130.946 114.101 131.629C114.495 132.312 114.693 133.106 114.693 134.013C114.693 134.92 114.49 135.72 114.085 136.413C113.69 137.096 113.151 137.624 112.469 137.997C111.786 138.37 111.029 138.557 110.197 138.557ZM110.197 137.277C110.719 137.277 111.21 137.154 111.669 136.909C112.127 136.664 112.495 136.296 112.773 135.805C113.061 135.314 113.205 134.717 113.205 134.013C113.205 133.309 113.066 132.712 112.789 132.221C112.511 131.73 112.149 131.368 111.701 131.133C111.253 130.888 110.767 130.765 110.245 130.765C109.711 130.765 109.221 130.888 108.773 131.133C108.335 131.368 107.983 131.73 107.717 132.221C107.45 132.712 107.317 133.309 107.317 134.013C107.317 134.728 107.445 135.33 107.701 135.821C107.967 136.312 108.319 136.68 108.757 136.925C109.194 137.16 109.674 137.277 110.197 137.277ZM117.359 128.221C117.082 128.221 116.847 128.125 116.655 127.933C116.463 127.741 116.367 127.506 116.367 127.229C116.367 126.952 116.463 126.717 116.655 126.525C116.847 126.333 117.082 126.237 117.359 126.237C117.626 126.237 117.85 126.333 118.031 126.525C118.223 126.717 118.319 126.952 118.319 127.229C118.319 127.506 118.223 127.741 118.031 127.933C117.85 128.125 117.626 128.221 117.359 128.221ZM118.063 129.645V138.413H116.607V129.645H118.063ZM120.001 134.013C120.001 133.106 120.182 132.317 120.545 131.645C120.907 130.962 121.409 130.434 122.049 130.061C122.699 129.688 123.441 129.501 124.273 129.501C125.35 129.501 126.235 129.762 126.929 130.285C127.633 130.808 128.097 131.533 128.321 132.461H126.753C126.603 131.928 126.31 131.506 125.873 131.197C125.446 130.888 124.913 130.733 124.273 130.733C123.441 130.733 122.769 131.021 122.257 131.597C121.745 132.162 121.489 132.968 121.489 134.013C121.489 135.069 121.745 135.885 122.257 136.461C122.769 137.037 123.441 137.325 124.273 137.325C124.913 137.325 125.446 137.176 125.873 136.877C126.299 136.578 126.593 136.152 126.753 135.597H128.321C128.086 136.493 127.617 137.213 126.913 137.757C126.209 138.29 125.329 138.557 124.273 138.557C123.441 138.557 122.699 138.37 122.049 137.997C121.409 137.624 120.907 137.096 120.545 136.413C120.182 135.73 120.001 134.93 120.001 134.013ZM138.263 133.693C138.263 133.97 138.247 134.264 138.215 134.573H131.207C131.261 135.437 131.554 136.114 132.087 136.605C132.631 137.085 133.287 137.325 134.055 137.325C134.685 137.325 135.207 137.181 135.623 136.893C136.05 136.594 136.349 136.2 136.519 135.709H138.087C137.853 136.552 137.383 137.24 136.679 137.773C135.975 138.296 135.101 138.557 134.055 138.557C133.223 138.557 132.477 138.37 131.815 137.997C131.165 137.624 130.653 137.096 130.279 136.413C129.906 135.72 129.719 134.92 129.719 134.013C129.719 133.106 129.901 132.312 130.263 131.629C130.626 130.946 131.133 130.424 131.783 130.061C132.445 129.688 133.202 129.501 134.055 129.501C134.887 129.501 135.623 129.682 136.263 130.045C136.903 130.408 137.394 130.909 137.735 131.549C138.087 132.178 138.263 132.893 138.263 133.693ZM136.759 133.389C136.759 132.834 136.637 132.36 136.391 131.965C136.146 131.56 135.81 131.256 135.383 131.053C134.967 130.84 134.503 130.733 133.991 130.733C133.255 130.733 132.626 130.968 132.103 131.437C131.591 131.906 131.298 132.557 131.223 133.389H136.759ZM148.019 130.845H146.179V138.413H144.723V130.845H143.587V129.645H144.723V129.021C144.723 128.04 144.973 127.325 145.475 126.877C145.987 126.418 146.803 126.189 147.923 126.189V127.405C147.283 127.405 146.829 127.533 146.563 127.789C146.307 128.034 146.179 128.445 146.179 129.021V129.645H148.019V130.845ZM153.54 138.557C152.719 138.557 151.972 138.37 151.3 137.997C150.639 137.624 150.116 137.096 149.732 136.413C149.359 135.72 149.172 134.92 149.172 134.013C149.172 133.117 149.364 132.328 149.748 131.645C150.143 130.952 150.676 130.424 151.348 130.061C152.02 129.688 152.772 129.501 153.604 129.501C154.436 129.501 155.188 129.688 155.86 130.061C156.532 130.424 157.06 130.946 157.444 131.629C157.839 132.312 158.036 133.106 158.036 134.013C158.036 134.92 157.834 135.72 157.428 136.413C157.034 137.096 156.495 137.624 155.812 137.997C155.13 138.37 154.372 138.557 153.54 138.557ZM153.54 137.277C154.063 137.277 154.554 137.154 155.012 136.909C155.471 136.664 155.839 136.296 156.116 135.805C156.404 135.314 156.548 134.717 156.548 134.013C156.548 133.309 156.41 132.712 156.132 132.221C155.855 131.73 155.492 131.368 155.044 131.133C154.596 130.888 154.111 130.765 153.588 130.765C153.055 130.765 152.564 130.888 152.116 131.133C151.679 131.368 151.327 131.73 151.06 132.221C150.794 132.712 150.66 133.309 150.66 134.013C150.66 134.728 150.788 135.33 151.044 135.821C151.311 136.312 151.663 136.68 152.1 136.925C152.538 137.16 153.018 137.277 153.54 137.277ZM161.407 131.069C161.663 130.568 162.025 130.178 162.495 129.901C162.975 129.624 163.556 129.485 164.239 129.485V130.989H163.855C162.223 130.989 161.407 131.874 161.407 133.645V138.413H159.951V129.645H161.407V131.069ZM171.641 131.261C171.929 130.76 172.356 130.344 172.921 130.013C173.497 129.672 174.164 129.501 174.921 129.501C175.7 129.501 176.404 129.688 177.033 130.061C177.673 130.434 178.174 130.962 178.537 131.645C178.9 132.317 179.081 133.101 179.081 133.997C179.081 134.882 178.9 135.672 178.537 136.365C178.174 137.058 177.673 137.597 177.033 137.981C176.404 138.365 175.7 138.557 174.921 138.557C174.174 138.557 173.513 138.392 172.937 138.061C172.372 137.72 171.94 137.298 171.641 136.797V142.573H170.185V129.645H171.641V131.261ZM177.593 133.997C177.593 133.336 177.46 132.76 177.193 132.269C176.926 131.778 176.564 131.405 176.105 131.149C175.657 130.893 175.161 130.765 174.617 130.765C174.084 130.765 173.588 130.898 173.129 131.165C172.681 131.421 172.318 131.8 172.041 132.301C171.774 132.792 171.641 133.362 171.641 134.013C171.641 134.674 171.774 135.256 172.041 135.757C172.318 136.248 172.681 136.626 173.129 136.893C173.588 137.149 174.084 137.277 174.617 137.277C175.161 137.277 175.657 137.149 176.105 136.893C176.564 136.626 176.926 136.248 177.193 135.757C177.46 135.256 177.593 134.669 177.593 133.997ZM182.454 131.069C182.71 130.568 183.072 130.178 183.542 129.901C184.022 129.624 184.603 129.485 185.286 129.485V130.989H184.902C183.27 130.989 182.454 131.874 182.454 133.645V138.413H180.998V129.645H182.454V131.069ZM187.718 128.221C187.441 128.221 187.206 128.125 187.014 127.933C186.822 127.741 186.726 127.506 186.726 127.229C186.726 126.952 186.822 126.717 187.014 126.525C187.206 126.333 187.441 126.237 187.718 126.237C187.985 126.237 188.209 126.333 188.39 126.525C188.582 126.717 188.678 126.952 188.678 127.229C188.678 127.506 188.582 127.741 188.39 127.933C188.209 128.125 187.985 128.221 187.718 128.221ZM188.422 129.645V138.413H186.966V129.645H188.422ZM194.728 138.557C193.907 138.557 193.16 138.37 192.488 137.997C191.827 137.624 191.304 137.096 190.92 136.413C190.547 135.72 190.36 134.92 190.36 134.013C190.36 133.117 190.552 132.328 190.936 131.645C191.331 130.952 191.864 130.424 192.536 130.061C193.208 129.688 193.96 129.501 194.792 129.501C195.624 129.501 196.376 129.688 197.048 130.061C197.72 130.424 198.248 130.946 198.632 131.629C199.027 132.312 199.224 133.106 199.224 134.013C199.224 134.92 199.021 135.72 198.616 136.413C198.221 137.096 197.683 137.624 197 137.997C196.317 138.37 195.56 138.557 194.728 138.557ZM194.728 137.277C195.251 137.277 195.741 137.154 196.2 136.909C196.659 136.664 197.027 136.296 197.304 135.805C197.592 135.314 197.736 134.717 197.736 134.013C197.736 133.309 197.597 132.712 197.32 132.221C197.043 131.73 196.68 131.368 196.232 131.133C195.784 130.888 195.299 130.765 194.776 130.765C194.243 130.765 193.752 130.888 193.304 131.133C192.867 131.368 192.515 131.73 192.248 132.221C191.981 132.712 191.848 133.309 191.848 134.013C191.848 134.728 191.976 135.33 192.232 135.821C192.499 136.312 192.851 136.68 193.288 136.925C193.725 137.16 194.205 137.277 194.728 137.277ZM202.594 131.069C202.85 130.568 203.213 130.178 203.682 129.901C204.162 129.624 204.744 129.485 205.426 129.485V130.989H205.042C203.41 130.989 202.594 131.874 202.594 133.645V138.413H201.138V129.645H202.594V131.069ZM207.859 128.221C207.582 128.221 207.347 128.125 207.155 127.933C206.963 127.741 206.867 127.506 206.867 127.229C206.867 126.952 206.963 126.717 207.155 126.525C207.347 126.333 207.582 126.237 207.859 126.237C208.126 126.237 208.35 126.333 208.531 126.525C208.723 126.717 208.819 126.952 208.819 127.229C208.819 127.506 208.723 127.741 208.531 127.933C208.35 128.125 208.126 128.221 207.859 128.221ZM208.563 129.645V138.413H207.107V129.645H208.563ZM212.821 130.845V136.013C212.821 136.44 212.911 136.744 213.093 136.925C213.274 137.096 213.589 137.181 214.036 137.181H215.109V138.413H213.797C212.986 138.413 212.378 138.226 211.973 137.853C211.567 137.48 211.365 136.866 211.365 136.013V130.845H210.229V129.645H211.365V127.437H212.821V129.645H215.109V130.845H212.821ZM224.425 129.645L219.145 142.541H217.641L219.369 138.317L215.833 129.645H217.449L220.201 136.749L222.921 129.645H224.425ZM233.258 138.557C232.586 138.557 231.983 138.445 231.45 138.221C230.917 137.986 230.495 137.666 230.186 137.261C229.877 136.845 229.706 136.37 229.674 135.837H231.178C231.221 136.274 231.423 136.632 231.786 136.909C232.159 137.186 232.645 137.325 233.242 137.325C233.797 137.325 234.234 137.202 234.554 136.957C234.874 136.712 235.034 136.402 235.034 136.029C235.034 135.645 234.863 135.362 234.522 135.181C234.181 134.989 233.653 134.802 232.938 134.621C232.287 134.45 231.754 134.28 231.338 134.109C230.933 133.928 230.581 133.666 230.282 133.325C229.994 132.973 229.85 132.514 229.85 131.949C229.85 131.501 229.983 131.09 230.25 130.717C230.517 130.344 230.895 130.05 231.386 129.837C231.877 129.613 232.437 129.501 233.066 129.501C234.037 129.501 234.821 129.746 235.418 130.237C236.015 130.728 236.335 131.4 236.378 132.253H234.922C234.89 131.794 234.703 131.426 234.362 131.149C234.031 130.872 233.583 130.733 233.018 130.733C232.495 130.733 232.079 130.845 231.77 131.069C231.461 131.293 231.306 131.586 231.306 131.949C231.306 132.237 231.397 132.477 231.578 132.669C231.77 132.85 232.005 133 232.282 133.117C232.57 133.224 232.965 133.346 233.466 133.485C234.095 133.656 234.607 133.826 235.002 133.997C235.397 134.157 235.733 134.402 236.01 134.733C236.298 135.064 236.447 135.496 236.458 136.029C236.458 136.509 236.325 136.941 236.058 137.325C235.791 137.709 235.413 138.013 234.922 138.237C234.442 138.45 233.887 138.557 233.258 138.557ZM246.289 129.645V138.413H244.833V137.117C244.556 137.565 244.167 137.917 243.665 138.173C243.175 138.418 242.631 138.541 242.033 138.541C241.351 138.541 240.737 138.402 240.193 138.125C239.649 137.837 239.217 137.41 238.897 136.845C238.588 136.28 238.433 135.592 238.433 134.781V129.645H239.873V134.589C239.873 135.453 240.092 136.12 240.529 136.589C240.967 137.048 241.564 137.277 242.321 137.277C243.1 137.277 243.713 137.037 244.161 136.557C244.609 136.077 244.833 135.378 244.833 134.461V129.645H246.289ZM250.204 131.261C250.492 130.76 250.918 130.344 251.484 130.013C252.06 129.672 252.726 129.501 253.484 129.501C254.262 129.501 254.966 129.688 255.596 130.061C256.236 130.434 256.737 130.962 257.1 131.645C257.462 132.317 257.644 133.101 257.644 133.997C257.644 134.882 257.462 135.672 257.1 136.365C256.737 137.058 256.236 137.597 255.596 137.981C254.966 138.365 254.262 138.557 253.484 138.557C252.737 138.557 252.076 138.392 251.5 138.061C250.934 137.72 250.502 137.298 250.204 136.797V142.573H248.748V129.645H250.204V131.261ZM256.156 133.997C256.156 133.336 256.022 132.76 255.756 132.269C255.489 131.778 255.126 131.405 254.668 131.149C254.22 130.893 253.724 130.765 253.18 130.765C252.646 130.765 252.15 130.898 251.692 131.165C251.244 131.421 250.881 131.8 250.604 132.301C250.337 132.792 250.204 133.362 250.204 134.013C250.204 134.674 250.337 135.256 250.604 135.757C250.881 136.248 251.244 136.626 251.692 136.893C252.15 137.149 252.646 137.277 253.18 137.277C253.724 137.277 254.22 137.149 254.668 136.893C255.126 136.626 255.489 136.248 255.756 135.757C256.022 135.256 256.156 134.669 256.156 133.997ZM261.016 131.261C261.304 130.76 261.731 130.344 262.296 130.013C262.872 129.672 263.539 129.501 264.296 129.501C265.075 129.501 265.779 129.688 266.408 130.061C267.048 130.434 267.549 130.962 267.912 131.645C268.275 132.317 268.456 133.101 268.456 133.997C268.456 134.882 268.275 135.672 267.912 136.365C267.549 137.058 267.048 137.597 266.408 137.981C265.779 138.365 265.075 138.557 264.296 138.557C263.549 138.557 262.888 138.392 262.312 138.061C261.747 137.72 261.315 137.298 261.016 136.797V142.573H259.56V129.645H261.016V131.261ZM266.968 133.997C266.968 133.336 266.835 132.76 266.568 132.269C266.301 131.778 265.939 131.405 265.48 131.149C265.032 130.893 264.536 130.765 263.992 130.765C263.459 130.765 262.963 130.898 262.504 131.165C262.056 131.421 261.693 131.8 261.416 132.301C261.149 132.792 261.016 133.362 261.016 134.013C261.016 134.674 261.149 135.256 261.416 135.757C261.693 136.248 262.056 136.626 262.504 136.893C262.963 137.149 263.459 137.277 263.992 137.277C264.536 137.277 265.032 137.149 265.48 136.893C265.939 136.626 266.301 136.248 266.568 135.757C266.835 135.256 266.968 134.669 266.968 133.997ZM274.197 138.557C273.375 138.557 272.629 138.37 271.957 137.997C271.295 137.624 270.773 137.096 270.389 136.413C270.015 135.72 269.829 134.92 269.829 134.013C269.829 133.117 270.021 132.328 270.405 131.645C270.799 130.952 271.333 130.424 272.005 130.061C272.677 129.688 273.429 129.501 274.261 129.501C275.093 129.501 275.845 129.688 276.517 130.061C277.189 130.424 277.717 130.946 278.101 131.629C278.495 132.312 278.693 133.106 278.693 134.013C278.693 134.92 278.49 135.72 278.085 136.413C277.69 137.096 277.151 137.624 276.469 137.997C275.786 138.37 275.029 138.557 274.197 138.557ZM274.197 137.277C274.719 137.277 275.21 137.154 275.669 136.909C276.127 136.664 276.495 136.296 276.773 135.805C277.061 135.314 277.205 134.717 277.205 134.013C277.205 133.309 277.066 132.712 276.789 132.221C276.511 131.73 276.149 131.368 275.701 131.133C275.253 130.888 274.767 130.765 274.245 130.765C273.711 130.765 273.221 130.888 272.773 131.133C272.335 131.368 271.983 131.73 271.717 132.221C271.45 132.712 271.317 133.309 271.317 134.013C271.317 134.728 271.445 135.33 271.701 135.821C271.967 136.312 272.319 136.68 272.757 136.925C273.194 137.16 273.674 137.277 274.197 137.277ZM282.063 131.069C282.319 130.568 282.682 130.178 283.151 129.901C283.631 129.624 284.212 129.485 284.895 129.485V130.989H284.511C282.879 130.989 282.063 131.874 282.063 133.645V138.413H280.607V129.645H282.063V131.069ZM288.352 130.845V136.013C288.352 136.44 288.442 136.744 288.624 136.925C288.805 137.096 289.12 137.181 289.568 137.181H290.64V138.413H289.328C288.517 138.413 287.909 138.226 287.504 137.853C287.098 137.48 286.896 136.866 286.896 136.013V130.845H285.76V129.645H286.896V127.437H288.352V129.645H290.64V130.845H288.352Z" fill="white" fill-opacity="0.8"/>
<path d="M113.6 222.945H70.94V216.345H89.72V187.065C89.6 188.145 88.22 195.345 70.94 195.345V187.605C83.36 187.605 89.72 185.025 89.72 176.325H100.4V216.345H113.6V222.945ZM164.593 191.205C164.593 203.325 148.393 211.725 138.253 216.345H165.493V222.945H122.893V216.945C122.893 216.945 153.493 205.185 153.493 191.445C153.493 187.125 150.553 182.865 143.533 182.865C137.353 182.865 134.173 186.465 134.173 191.025C134.173 197.745 141.793 200.325 141.793 200.325L130.513 203.385C130.513 203.385 123.193 199.725 123.193 191.025C123.193 183.765 129.733 175.485 143.713 175.485C157.573 175.485 164.593 182.325 164.593 191.205ZM195.006 216.345C204.246 216.345 209.046 208.785 208.686 198.465C208.686 198.465 204.846 207.705 191.766 207.705C183.246 207.705 174.606 202.665 174.606 192.345C174.606 182.385 184.086 175.485 196.566 175.485C211.626 175.485 219.786 185.565 219.786 199.605C219.786 213.585 211.026 223.725 194.586 223.725C176.586 223.725 173.766 212.085 173.766 212.085L184.806 209.085C184.806 209.085 185.586 216.345 195.006 216.345ZM207.546 191.205C207.546 191.205 205.806 182.865 196.626 182.865C189.906 182.865 185.766 186.705 185.766 191.205C185.766 196.305 189.066 200.325 195.486 200.325C206.586 200.325 207.546 191.205 207.546 191.205Z" fill="white"/>
<path d="M53.78 192.708C52.8333 192.708 51.9667 192.535 51.18 192.188C50.3933 191.828 49.7267 191.341 49.18 190.728C48.6333 190.115 48.24 189.428 48 188.668L49.7 187.968C50.06 188.928 50.5933 189.668 51.3 190.188C52.02 190.695 52.86 190.948 53.82 190.948C54.4067 190.948 54.92 190.855 55.36 190.668C55.8 190.481 56.14 190.221 56.38 189.888C56.6333 189.541 56.76 189.141 56.76 188.688C56.76 188.061 56.58 187.568 56.22 187.208C55.8733 186.835 55.36 186.555 54.68 186.368L51.94 185.528C50.86 185.195 50.0333 184.668 49.46 183.948C48.8867 183.228 48.6 182.401 48.6 181.468C48.6 180.655 48.7933 179.941 49.18 179.328C49.58 178.701 50.1267 178.215 50.82 177.868C51.5267 177.508 52.3267 177.328 53.22 177.328C54.1133 177.328 54.92 177.488 55.64 177.808C56.3733 178.128 56.9933 178.561 57.5 179.108C58.0067 179.641 58.38 180.255 58.62 180.948L56.94 181.648C56.62 180.808 56.14 180.175 55.5 179.748C54.86 179.308 54.1067 179.088 53.24 179.088C52.7067 179.088 52.2333 179.181 51.82 179.368C51.42 179.541 51.1067 179.801 50.88 180.148C50.6667 180.481 50.56 180.881 50.56 181.348C50.56 181.895 50.7333 182.381 51.08 182.808C51.4267 183.235 51.9533 183.561 52.66 183.788L55.16 184.528C56.3333 184.888 57.22 185.401 57.82 186.068C58.42 186.735 58.72 187.561 58.72 188.548C58.72 189.361 58.5067 190.081 58.08 190.708C57.6667 191.335 57.0867 191.828 56.34 192.188C55.6067 192.535 54.7533 192.708 53.78 192.708ZM52.88 194.468V175.568H54.38V194.468H52.88Z" fill="white"/>
<path d="M242.42 223.9H241.56V219.68C236.38 219.28 234.76 216.14 234.66 214.18L237.34 213.4C237.34 213.4 236.92 217.18 241.56 217.68V212.56L239.34 212.04C236.68 211.42 235.38 209.94 235.38 208.08C235.38 205.74 237.28 203.62 241.56 203.62V199.2H242.42V203.64C248.46 203.98 248.6 208.26 248.6 208.26L245.92 208.98C245.92 208.98 246.16 206.06 242.42 205.64V210.28L244.78 210.8C248.16 211.56 249.34 213.26 249.34 215.28C249.34 218.2 246.44 219.72 242.68 219.72H242.42V223.9ZM240.82 209.92L241.56 210.08V205.6H241.52C239.42 205.6 238.08 206.52 238.08 207.84C238.08 209.02 239.1 209.54 240.82 209.92ZM243.12 212.92L242.42 212.76V217.74H242.62C245.14 217.74 246.64 216.68 246.64 215.4C246.64 213.9 245.4 213.46 243.12 212.92ZM264.996 219.44H252.196V217.74H258.196L258.176 205.6C258.176 208.6 257.156 209.84 252.196 209.84V207.86C256.176 207.86 258.196 206.94 258.196 203.9H260.796V217.74H264.996V219.44ZM280.792 214.58C280.792 217.58 278.052 219.72 274.312 219.72C269.772 219.72 267.192 216.34 267.192 211.66C267.192 207 269.852 203.62 274.392 203.62C279.632 203.62 280.592 208.06 280.592 208.06L277.932 208.86C277.932 208.86 277.632 205.6 274.392 205.6C271.412 205.6 269.932 208.24 269.932 211.66C269.932 212.02 269.952 212.38 269.972 212.74C270.572 210.54 272.772 209.44 275.352 209.44C278.052 209.44 280.792 210.98 280.792 214.58ZM274.312 211.42C272.192 211.42 270.692 212.7 270.292 214.42C270.872 216.42 272.192 217.74 274.312 217.74C276.892 217.74 278.052 216.38 278.052 214.58C278.052 212.78 276.892 211.42 274.312 211.42ZM296.788 211.66C296.788 216.34 294.528 219.72 289.988 219.72C285.448 219.72 283.188 216.34 283.188 211.66C283.188 207 285.448 203.62 289.988 203.62C294.528 203.62 296.788 207 296.788 211.66ZM294.048 211.66C294.048 208.24 292.968 205.6 289.988 205.6C287.008 205.6 285.928 208.24 285.928 211.66C285.928 215.1 287.008 217.74 289.988 217.74C292.968 217.74 294.048 215.1 294.048 211.66Z" fill="white" fill-opacity="0.8"/>
<path d="M230 226.376L287 197.477" stroke="white" stroke-width="3" stroke-linecap="round"/>
<path d="M0 8C0 3.58173 3.58172 0 8 0H155V28.6055C155 33.0238 151.418 36.6055 147 36.6055H0V8Z" fill="#EDB7D5"/>
<path d="M49.232 24.6331V14.2031H50.212L54.132 19.8871H53.586L57.492 14.2031H58.472V24.6331H57.352V15.7151L57.716 15.8551L53.88 21.4131H53.824L50.002 15.8551L50.352 15.7151V24.6331H49.232ZM64.2951 24.8011C63.5858 24.8011 62.9418 24.6331 62.3631 24.2971C61.7845 23.9517 61.3225 23.4851 60.9771 22.8971C60.6411 22.2997 60.4731 21.6231 60.4731 20.8671C60.4731 20.1204 60.6411 19.4531 60.9771 18.8651C61.3131 18.2771 61.7658 17.8151 62.3351 17.4791C62.9138 17.1337 63.5671 16.9611 64.2951 16.9611C65.0231 16.9611 65.6718 17.1291 66.2411 17.4651C66.8198 17.8011 67.2725 18.2631 67.5991 18.8511C67.9351 19.4391 68.1031 20.1111 68.1031 20.8671C68.1031 21.6324 67.9305 22.3137 67.5851 22.9111C67.2398 23.4991 66.7778 23.9611 66.1991 24.2971C65.6298 24.6331 64.9951 24.8011 64.2951 24.8011ZM64.2951 23.7511C64.7991 23.7511 65.2518 23.6251 65.6531 23.3731C66.0638 23.1211 66.3858 22.7757 66.6191 22.3371C66.8618 21.8984 66.9831 21.4084 66.9831 20.8671C66.9831 20.3257 66.8618 19.8404 66.6191 19.4111C66.3858 18.9817 66.0638 18.6411 65.6531 18.3891C65.2518 18.1371 64.7991 18.0111 64.2951 18.0111C63.7911 18.0111 63.3338 18.1371 62.9231 18.3891C62.5218 18.6411 62.1998 18.9817 61.9571 19.4111C61.7145 19.8404 61.5931 20.3257 61.5931 20.8671C61.5931 21.4084 61.7145 21.8984 61.9571 22.3371C62.1998 22.7757 62.5218 23.1211 62.9231 23.3731C63.3338 23.6251 63.7911 23.7511 64.2951 23.7511ZM72.559 24.8011C71.8403 24.8011 71.2103 24.6191 70.669 24.2551C70.1276 23.8911 69.7356 23.3964 69.493 22.7711L70.375 22.3511C70.5896 22.8084 70.8883 23.1724 71.271 23.4431C71.663 23.7137 72.0923 23.8491 72.559 23.8491C73.007 23.8491 73.385 23.7417 73.693 23.5271C74.001 23.3031 74.155 23.0137 74.155 22.6591C74.155 22.3977 74.0803 22.1924 73.931 22.0431C73.7816 21.8844 73.609 21.7631 73.413 21.6791C73.217 21.5951 73.0443 21.5344 72.895 21.4971L71.817 21.1891C71.1263 20.9931 70.627 20.7177 70.319 20.3631C70.011 20.0084 69.857 19.5977 69.857 19.1311C69.857 18.6924 69.969 18.3097 70.193 17.9831C70.417 17.6564 70.7203 17.4044 71.103 17.2271C71.4856 17.0497 71.9103 16.9611 72.377 16.9611C73.0116 16.9611 73.5856 17.1291 74.099 17.4651C74.6216 17.7917 74.9903 18.2491 75.205 18.8371L74.309 19.2571C74.1223 18.8371 73.8516 18.5104 73.497 18.2771C73.1516 18.0344 72.7643 17.9131 72.335 17.9131C71.915 17.9131 71.579 18.0204 71.327 18.2351C71.075 18.4497 70.949 18.7204 70.949 19.0471C70.949 19.2991 71.0143 19.4997 71.145 19.6491C71.2756 19.7984 71.425 19.9104 71.593 19.9851C71.7703 20.0597 71.9243 20.1157 72.055 20.1531L73.301 20.5171C73.9076 20.6944 74.379 20.9697 74.715 21.3431C75.0603 21.7164 75.233 22.1551 75.233 22.6591C75.233 23.0697 75.1163 23.4384 74.883 23.7651C74.659 24.0917 74.3463 24.3484 73.945 24.5351C73.5436 24.7124 73.0816 24.8011 72.559 24.8011ZM79.948 24.7171C79.276 24.7171 78.758 24.5211 78.394 24.1291C78.03 23.7371 77.848 23.1771 77.848 22.4491V18.1791H76.462V17.1291H76.812C77.1293 17.1291 77.3813 17.0264 77.568 16.8211C77.7547 16.6064 77.848 16.3404 77.848 16.0231V15.3931H78.898V17.1291H80.55V18.1791H78.898V22.4491C78.898 22.7011 78.9353 22.9251 79.01 23.1211C79.0847 23.3077 79.2107 23.4571 79.388 23.5691C79.5747 23.6811 79.822 23.7371 80.13 23.7371C80.2047 23.7371 80.2933 23.7324 80.396 23.7231C80.4987 23.7137 80.5873 23.7044 80.662 23.6951V24.6331C80.55 24.6611 80.424 24.6797 80.284 24.6891C80.144 24.7077 80.032 24.7171 79.948 24.7171ZM85.0386 24.6331V14.2031H88.6226C89.304 14.2031 89.9013 14.3384 90.4146 14.6091C90.928 14.8704 91.3246 15.2437 91.6046 15.7291C91.894 16.2051 92.0386 16.7604 92.0386 17.3951C92.0386 18.0297 91.894 18.5851 91.6046 19.0611C91.3246 19.5371 90.928 19.9104 90.4146 20.1811C89.9106 20.4424 89.3133 20.5731 88.6226 20.5731H86.1586V24.6331H85.0386ZM86.1586 19.5231H88.6786C89.1266 19.5231 89.5186 19.4391 89.8546 19.2711C90.1906 19.0937 90.452 18.8464 90.6386 18.5291C90.8253 18.2024 90.9186 17.8197 90.9186 17.3811C90.9186 16.9424 90.8253 16.5644 90.6386 16.2471C90.452 15.9297 90.1906 15.6871 89.8546 15.5191C89.5186 15.3417 89.1266 15.2531 88.6786 15.2531H86.1586V19.5231ZM97.1213 24.8011C96.412 24.8011 95.768 24.6331 95.1893 24.2971C94.6106 23.9517 94.1486 23.4851 93.8033 22.8971C93.4673 22.2997 93.2993 21.6231 93.2993 20.8671C93.2993 20.1204 93.4673 19.4531 93.8033 18.8651C94.1393 18.2771 94.592 17.8151 95.1613 17.4791C95.74 17.1337 96.3933 16.9611 97.1213 16.9611C97.8493 16.9611 98.498 17.1291 99.0673 17.4651C99.646 17.8011 100.099 18.2631 100.425 18.8511C100.761 19.4391 100.929 20.1111 100.929 20.8671C100.929 21.6324 100.757 22.3137 100.411 22.9111C100.066 23.4991 99.604 23.9611 99.0253 24.2971C98.456 24.6331 97.8213 24.8011 97.1213 24.8011ZM97.1213 23.7511C97.6253 23.7511 98.078 23.6251 98.4793 23.3731C98.89 23.1211 99.212 22.7757 99.4453 22.3371C99.688 21.8984 99.8093 21.4084 99.8093 20.8671C99.8093 20.3257 99.688 19.8404 99.4453 19.4111C99.212 18.9817 98.89 18.6411 98.4793 18.3891C98.078 18.1371 97.6253 18.0111 97.1213 18.0111C96.6173 18.0111 96.16 18.1371 95.7493 18.3891C95.348 18.6411 95.026 18.9817 94.7833 19.4111C94.5406 19.8404 94.4193 20.3257 94.4193 20.8671C94.4193 21.4084 94.5406 21.8984 94.7833 22.3371C95.026 22.7757 95.348 23.1211 95.7493 23.3731C96.16 23.6251 96.6173 23.7511 97.1213 23.7511ZM102.781 27.4331V17.1291H103.831V18.8091L103.663 18.5151C103.962 18.0391 104.358 17.6611 104.853 17.3811C105.357 17.1011 105.931 16.9611 106.575 16.9611C107.284 16.9611 107.914 17.1337 108.465 17.4791C109.025 17.8151 109.464 18.2771 109.781 18.8651C110.108 19.4531 110.271 20.1251 110.271 20.8811C110.271 21.6277 110.108 22.2997 109.781 22.8971C109.464 23.4851 109.025 23.9517 108.465 24.2971C107.914 24.6331 107.284 24.8011 106.575 24.8011C105.931 24.8011 105.348 24.6564 104.825 24.3671C104.312 24.0684 103.924 23.6484 103.663 23.1071L103.831 22.9531V27.4331H102.781ZM106.519 23.7511C107.023 23.7511 107.471 23.6251 107.863 23.3731C108.264 23.1211 108.577 22.7804 108.801 22.3511C109.034 21.9124 109.151 21.4224 109.151 20.8811C109.151 20.3304 109.034 19.8404 108.801 19.4111C108.577 18.9817 108.264 18.6411 107.863 18.3891C107.471 18.1371 107.023 18.0111 106.519 18.0111C106.015 18.0111 105.558 18.1371 105.147 18.3891C104.746 18.6411 104.424 18.9864 104.181 19.4251C103.948 19.8544 103.831 20.3397 103.831 20.8811C103.831 21.4224 103.948 21.9124 104.181 22.3511C104.424 22.7804 104.746 23.1211 105.147 23.3731C105.558 23.6251 106.015 23.7511 106.519 23.7511ZM114.779 24.8011C114.256 24.8011 113.78 24.6797 113.351 24.4371C112.922 24.1851 112.581 23.8397 112.329 23.4011C112.086 22.9531 111.965 22.4397 111.965 21.8611V17.1291H113.015V21.7351C113.015 22.1364 113.094 22.4911 113.253 22.7991C113.421 23.0977 113.65 23.3311 113.939 23.4991C114.238 23.6671 114.578 23.7511 114.961 23.7511C115.344 23.7511 115.684 23.6671 115.983 23.4991C116.282 23.3217 116.515 23.0744 116.683 22.7571C116.851 22.4304 116.935 22.0431 116.935 21.5951V17.1291H117.985V24.6331H116.935V23.1771L117.173 23.2331C116.996 23.7184 116.692 24.1011 116.263 24.3811C115.834 24.6611 115.339 24.8011 114.779 24.8011ZM120.144 24.6331V14.0351H121.194V24.6331H120.144ZM125.514 24.8011C125.038 24.8011 124.613 24.7124 124.24 24.5351C123.866 24.3484 123.572 24.0964 123.358 23.7791C123.143 23.4617 123.036 23.0977 123.036 22.6871C123.036 22.2951 123.12 21.9404 123.288 21.6231C123.456 21.2964 123.717 21.0211 124.072 20.7971C124.426 20.5731 124.879 20.4144 125.43 20.3211L128.37 19.8311V20.7831L125.682 21.2311C125.14 21.3244 124.748 21.4971 124.506 21.7491C124.272 22.0011 124.156 22.2997 124.156 22.6451C124.156 22.9811 124.286 23.2657 124.548 23.4991C124.818 23.7324 125.164 23.8491 125.584 23.8491C126.097 23.8491 126.545 23.7417 126.928 23.5271C127.31 23.3031 127.609 23.0044 127.824 22.6311C128.038 22.2577 128.146 21.8424 128.146 21.3851V19.4811C128.146 19.0331 127.982 18.6691 127.656 18.3891C127.329 18.1091 126.904 17.9691 126.382 17.9691C125.924 17.9691 125.523 18.0857 125.178 18.3191C124.832 18.5431 124.576 18.8371 124.408 19.2011L123.456 18.6831C123.596 18.3657 123.815 18.0764 124.114 17.8151C124.422 17.5537 124.772 17.3484 125.164 17.1991C125.556 17.0404 125.962 16.9611 126.382 16.9611C126.932 16.9611 127.418 17.0684 127.838 17.2831C128.267 17.4977 128.598 17.7964 128.832 18.1791C129.074 18.5524 129.196 18.9864 129.196 19.4811V24.6331H128.146V23.1351L128.3 23.2891C128.169 23.5691 127.964 23.8257 127.684 24.0591C127.413 24.2831 127.091 24.4651 126.718 24.6051C126.354 24.7357 125.952 24.8011 125.514 24.8011ZM131.355 24.6331V17.1291H132.405V18.3611L132.265 18.1791C132.443 17.8244 132.709 17.5444 133.063 17.3391C133.427 17.1337 133.866 17.0311 134.379 17.0311H134.855V18.0811H134.197C133.656 18.0811 133.222 18.2491 132.895 18.5851C132.569 18.9211 132.405 19.3971 132.405 20.0131V24.6331H131.355Z" fill="white"/>
<g clip-path="url(#clip0_0_1)">
<path d="M29.0012 22.8255L23.7114 25.6778L24.8927 19.95L20.4414 15.985L26.4617 15.2972L29.0012 9.99426L31.5407 15.2972L37.5609 15.985L33.1097 19.95L34.2909 25.6778L29.0012 22.8255Z" fill="white"/>
</g>
<defs>
<linearGradient id="paint0_linear_0_1" x1="1.45659e-06" y1="525" x2="392.085" y2="509.937" gradientUnits="userSpaceOnUse">
<stop stop-color="#6462F0"/>
<stop offset="1" stop-color="#9190E9"/>
</linearGradient>
<clipPath id="clip0_0_1">
<rect width="18" height="17.3394" fill="white" transform="translate(20 9.63306)"/>
</clipPath>
</defs>
</svg>
